<svg width="263" height="59" viewBox="0 0 263 59" fill="none" xmlns="http://www.w3.org/2000/svg">
<path d="M0 3.14667C0 1.40881 1.41603 0 3.16279 0H132.837C134.584 0 136 1.40881 136 3.14667V55.8533C136 57.5912 134.584 59 132.837 59H3.16279C1.41603 59 0 57.5912 0 55.8533V3.14667Z" fill="#18181B"/>
<path d="M35.4556 24.2609C33.4557 21.8551 30.9851 20.6522 28.0439 20.6522C26.7498 20.6522 25.544 20.8841 24.4263 21.3478C23.3381 21.8116 22.3969 22.4493 21.6028 23.2609C20.8087 24.0435 20.1764 24.9855 19.7058 26.087C19.2646 27.1884 19.044 28.3768 19.044 29.6522C19.044 30.9565 19.2646 32.1594 19.7058 33.2609C20.1764 34.3623 20.8087 35.3188 21.6028 36.1304C22.4263 36.942 23.3822 37.5797 24.4704 38.0435C25.5587 38.5072 26.7351 38.7391 27.9998 38.7391C30.7645 38.7391 33.2498 37.5797 35.4556 35.2609V45.3478L34.5733 45.6522C33.2498 46.1159 32.0145 46.4493 30.8674 46.6522C29.7204 46.8841 28.5881 47 27.4704 47C25.1763 47 22.9705 46.5797 20.8528 45.7391C18.7646 44.8696 16.9117 43.6667 15.2941 42.1304C13.7058 40.5652 12.4264 38.7246 11.4559 36.6087C10.4853 34.4638 10 32.1304 10 29.6087C10 27.087 10.4706 24.7826 11.4118 22.6957C12.3823 20.5797 13.6617 18.7681 15.2499 17.2609C16.8676 15.7246 18.7352 14.5362 20.8528 13.6957C22.9705 12.8261 25.191 12.3913 27.5145 12.3913C28.8381 12.3913 30.1322 12.5362 31.3968 12.8261C32.691 13.087 34.0439 13.5072 35.4556 14.087V24.2609Z" fill="#FAFAFA"/>
<path d="M47.7199 34.8261C47.7199 35.5797 47.8522 36.2754 48.1169 36.913C48.411 37.5217 48.7787 38.058 49.2199 38.5217C49.6904 38.9855 50.2346 39.3478 50.8522 39.6087C51.4992 39.8696 52.1757 40 52.8816 40C53.5875 40 54.2492 39.8696 54.8669 39.6087C55.5139 39.3478 56.058 38.9855 56.4992 38.5217C56.9698 38.058 57.3374 37.5217 57.6021 36.913C57.8962 36.2754 58.0433 35.5942 58.0433 34.8696C58.0433 34.1739 57.8962 33.5217 57.6021 32.913C57.3374 32.2754 56.9698 31.7246 56.4992 31.2609C56.058 30.7971 55.5139 30.4348 54.8669 30.1739C54.2492 29.913 53.5875 29.7826 52.8816 29.7826C52.1757 29.7826 51.4992 29.913 50.8522 30.1739C50.2346 30.4348 49.6904 30.7971 49.2199 31.2609C48.7787 31.7246 48.411 32.2609 48.1169 32.8696C47.8522 33.4783 47.7199 34.1304 47.7199 34.8261ZM39.2935 34.7391C39.2935 33.087 39.6317 31.5507 40.3082 30.1304C40.9846 28.6812 41.9258 27.4348 43.1317 26.3913C44.3376 25.3188 45.764 24.4783 47.4111 23.8696C49.0875 23.2609 50.911 22.9565 52.8816 22.9565C54.8227 22.9565 56.6168 23.2609 58.2639 23.8696C59.9403 24.4493 61.3815 25.2754 62.5874 26.3478C63.8227 27.3913 64.7785 28.6522 65.455 30.1304C66.1315 31.5797 66.4697 33.1884 66.4697 34.9565C66.4697 36.7246 66.1167 38.3478 65.4109 39.8261C64.7344 41.2754 63.7932 42.5362 62.5874 43.6087C61.3815 44.6522 59.9256 45.4638 58.2198 46.0435C56.5433 46.6232 54.7198 46.913 52.7492 46.913C50.8081 46.913 49.014 46.6232 47.3669 46.0435C45.7199 45.4638 44.2934 44.6377 43.0876 43.5652C41.9111 42.4928 40.9846 41.2174 40.3082 39.7391C39.6317 38.2319 39.2935 36.5652 39.2935 34.7391Z" fill="#FAFAFA"/>
<path d="M78.4782 34.8696C78.4782 35.5942 78.6105 36.2754 78.8752 36.913C79.1399 37.5217 79.4929 38.058 79.9341 38.5217C80.4046 38.9855 80.9488 39.3478 81.5664 39.6087C82.2134 39.8696 82.9046 40 83.6399 40C84.3458 40 85.0075 39.8696 85.6252 39.6087C86.2722 39.3478 86.8163 38.9855 87.2575 38.5217C87.7281 38.058 88.0957 37.5217 88.3604 36.913C88.6546 36.3043 88.8016 35.6522 88.8016 34.9565C88.8016 34.2609 88.6546 33.6087 88.3604 33C88.0957 32.3623 87.7281 31.8116 87.2575 31.3478C86.8163 30.8841 86.2722 30.5217 85.6252 30.2609C85.0075 30 84.3458 29.8696 83.6399 29.8696C82.934 29.8696 82.2576 30 81.6105 30.2609C80.9929 30.5217 80.4488 30.8841 79.9782 31.3478C79.537 31.8116 79.1694 32.3478 78.8752 32.9565C78.6105 33.5362 78.4782 34.1739 78.4782 34.8696ZM88.5369 10H96.5662V46.087H88.5369V43.6087C86.831 45.7246 84.5222 46.7826 81.6105 46.7826C79.9635 46.7826 78.4488 46.4783 77.0664 45.8696C75.6841 45.2609 74.4782 44.4203 73.4488 43.3478C72.4194 42.2754 71.6106 41.0145 71.0224 39.5652C70.4636 38.1159 70.1842 36.5507 70.1842 34.8696C70.1842 33.2754 70.4489 31.7681 70.9783 30.3478C71.5371 28.8986 72.3165 27.6377 73.3165 26.5652C74.3165 25.4928 75.5076 24.6522 76.89 24.0435C78.3017 23.4058 79.8458 23.087 81.5223 23.087C84.3458 23.087 86.684 24.058 88.5369 26V10Z" fill="#FAFAFA"/>
<path d="M118.544 31.6957C118.279 30.5942 117.735 29.7101 116.912 29.0435C116.088 28.3768 115.088 28.0435 113.912 28.0435C112.677 28.0435 111.662 28.3623 110.868 29C110.103 29.6377 109.618 30.5362 109.412 31.6957H118.544ZM109.191 36.2609C109.191 39.6522 110.809 41.3478 114.044 41.3478C115.78 41.3478 117.088 40.6522 117.971 39.2609H125.691C124.132 44.3623 120.235 46.913 114 46.913C112.088 46.913 110.338 46.6377 108.75 46.087C107.162 45.5072 105.794 44.6957 104.647 43.6522C103.53 42.6087 102.662 41.3623 102.044 39.913C101.427 38.4638 101.118 36.8406 101.118 35.0435C101.118 33.1884 101.412 31.5217 102 30.0435C102.588 28.5362 103.427 27.2609 104.515 26.2174C105.603 25.1739 106.912 24.3768 108.441 23.8261C110 23.2464 111.75 22.9565 113.691 22.9565C115.603 22.9565 117.324 23.2464 118.853 23.8261C120.382 24.3768 121.677 25.1884 122.735 26.2609C123.794 27.3333 124.603 28.6522 125.162 30.2174C125.721 31.7536 126 33.4928 126 35.4348V36.2609H109.191Z" fill="#FAFAFA"/>
<path d="M168.245 17.1161V22.2846C165.675 20.1748 163.016 19.1199 160.268 19.1199C157.24 19.1199 154.689 20.1873 152.615 22.3221C150.528 24.4444 149.485 27.0412 149.485 30.1124C149.485 33.1461 150.528 35.7054 152.615 37.7903C154.701 39.8752 157.259 40.9176 160.287 40.9176C161.852 40.9176 163.181 40.6679 164.275 40.1685C164.886 39.9189 165.516 39.5818 166.165 39.1573C166.826 38.7328 167.52 38.221 168.245 37.6217V42.8839C165.7 44.2946 163.029 45 160.229 45C156.018 45 152.424 43.5581 149.447 40.6742C146.482 37.7653 145 34.2572 145 30.1498C145 26.4669 146.24 23.1835 148.721 20.2996C151.775 16.7665 155.726 15 160.573 15C163.219 15 165.777 15.7054 168.245 17.1161Z" fill="black"/>
<path d="M186.757 26.236H191.07V44.4757H186.757V42.5655C184.989 44.1885 183.086 45 181.051 45C178.481 45 176.356 44.0886 174.677 42.2659C173.01 40.4057 172.176 38.0836 172.176 35.2996C172.176 32.5655 173.01 30.2871 174.677 28.4644C176.343 26.6417 178.43 25.7303 180.936 25.7303C183.099 25.7303 185.039 26.6042 186.757 28.3521V26.236ZM176.566 35.2996C176.566 37.0474 177.043 38.4707 177.997 39.5693C178.977 40.6804 180.211 41.236 181.7 41.236C183.29 41.236 184.575 40.6991 185.555 39.6255C186.534 38.5144 187.024 37.1036 187.024 35.3933C187.024 33.6829 186.534 32.2722 185.555 31.161C184.575 30.0749 183.303 29.5318 181.738 29.5318C180.262 29.5318 179.028 30.0811 178.035 31.1798C177.056 32.2909 176.566 33.6642 176.566 35.2996Z" fill="black"/>
<path d="M196.49 26.236H200.784V27.8652C201.573 27.0537 202.273 26.4981 202.884 26.1985C203.507 25.8864 204.245 25.7303 205.097 25.7303C206.23 25.7303 207.413 26.0924 208.647 26.8165L206.681 30.6742C205.867 30.0999 205.072 29.8127 204.296 29.8127C201.955 29.8127 200.784 31.5481 200.784 35.0187V44.4757H196.49V26.236Z" fill="black"/>
<path d="M216.949 30.1685V44.4757H212.655V30.1685H210.823V26.236H212.655V19.5506H216.949V26.236H220.289V30.1685H216.949Z" fill="black"/>
<path d="M222.598 35.2247C222.598 32.5905 223.559 30.3496 225.48 28.5019C227.401 26.6542 229.742 25.7303 232.503 25.7303C235.276 25.7303 237.63 26.6604 239.564 28.5206C241.473 30.3808 242.427 32.6654 242.427 35.3745C242.427 38.1086 241.466 40.3995 239.545 42.2472C237.611 44.0824 235.238 45 232.426 45C229.64 45 227.305 44.0637 225.422 42.191C223.539 40.3433 222.598 38.0212 222.598 35.2247ZM226.987 35.2996C226.987 37.1223 227.484 38.5643 228.476 39.6255C229.494 40.6991 230.836 41.236 232.503 41.236C234.182 41.236 235.525 40.7054 236.53 39.6442C237.535 38.583 238.037 37.166 238.037 35.3933C238.037 33.6205 237.535 32.2035 236.53 31.1423C235.512 30.0687 234.17 29.5318 232.503 29.5318C230.862 29.5318 229.532 30.0687 228.514 31.1423C227.496 32.216 226.987 33.6017 226.987 35.2996Z" fill="black"/>
<path d="M246.988 26.236H251.301V27.9213C252.802 26.4607 254.495 25.7303 256.378 25.7303C258.541 25.7303 260.226 26.3983 261.435 27.7341C262.478 28.8702 263 30.7241 263 33.2959V44.4757H258.687V34.2884C258.687 32.4906 258.432 31.2484 257.924 30.5618C257.427 29.8627 256.524 29.5131 255.213 29.5131C253.789 29.5131 252.777 29.975 252.179 30.8989C251.594 31.8102 251.301 33.402 251.301 35.6742V44.4757H246.988V26.236Z" fill="black"/>
</svg>
