<svg width="355" height="80" viewBox="0 0 355 80" fill="none" xmlns="http://www.w3.org/2000/svg">
<path d="M24.2375 59.28C24.0135 59.28 23.7895 59.224 23.5655 59.112C23.3415 59.0373 23.1735 58.9067 23.0615 58.72L10.4615 30.216H10.2935L10.4055 52.448C10.4429 53.1573 10.4989 53.848 10.5735 54.52C10.6855 55.1547 10.9842 55.696 11.4695 56.144C11.9549 56.5547 12.7762 56.76 13.9335 56.76C14.3442 56.76 14.6802 56.7973 14.9415 56.872C15.2029 56.9467 15.3522 57.3013 15.3895 57.936C15.3895 58.2347 15.2962 58.5147 15.1095 58.776C14.9602 59.0373 14.7175 59.168 14.3815 59.168C13.5975 59.1307 12.9629 59.0933 12.4775 59.056C11.9922 59.056 11.5255 59.0373 11.0775 59C10.6295 59 10.0322 59 9.28553 59C8.16553 59 7.25087 59 6.54153 59C5.86953 59.0373 4.9362 59.0933 3.74153 59.168C3.3682 59.168 3.10686 59.0373 2.95753 58.776C2.8082 58.5147 2.73353 58.2347 2.73353 57.936C2.77086 57.3013 2.9202 56.9467 3.18153 56.872C3.44286 56.7973 3.7602 56.76 4.13353 56.76C5.3282 56.76 6.14953 56.5547 6.59753 56.144C7.08286 55.696 7.38153 55.1547 7.49353 54.52C7.60553 53.848 7.66153 53.1573 7.66153 52.448L7.77353 30.216C7.77353 29.0213 7.64286 28.144 7.38153 27.584C7.1202 26.9867 6.70953 26.576 6.14953 26.352C5.58953 26.0907 4.8802 25.8853 4.02153 25.736C3.49886 25.624 3.12553 25.5307 2.90153 25.456C2.71486 25.3813 2.62153 25.0453 2.62153 24.448C2.62153 23.8133 2.84553 23.4773 3.29353 23.44C3.74153 23.3653 4.2642 23.328 4.86153 23.328C6.69087 23.328 8.2962 23.4773 9.67753 23.776C11.0962 24.0747 12.3282 24.6533 13.3735 25.512C14.4189 26.3333 15.2775 27.584 15.9495 29.264L25.5815 50.88H25.7495L36.7815 23.664H39.9735C41.0935 23.664 42.1762 23.6453 43.2215 23.608C44.3042 23.5707 45.4429 23.5333 46.6375 23.496C47.0109 23.496 47.2722 23.6267 47.4215 23.888C47.5709 24.1493 47.6455 24.4293 47.6455 24.728C47.6082 25.3627 47.4589 25.7173 47.1975 25.792C46.9362 25.8667 46.6189 25.904 46.2455 25.904C45.0882 25.904 44.2482 26.128 43.7255 26.576C43.2402 26.9867 42.9415 27.528 42.8295 28.2C42.7175 28.8347 42.6429 29.5067 42.6055 30.216V52.448C42.6429 53.1573 42.7175 53.848 42.8295 54.52C42.9415 55.1547 43.2402 55.696 43.7255 56.144C44.2482 56.5547 45.0882 56.76 46.2455 56.76C46.6189 56.76 46.9362 56.7973 47.1975 56.872C47.4589 56.9467 47.6082 57.3013 47.6455 57.936C47.6455 58.2347 47.5709 58.5147 47.4215 58.776C47.2722 59.0373 47.0109 59.168 46.6375 59.168C45.4429 59.0933 44.3042 59.0373 43.2215 59C42.1389 59 41.0375 59 39.9175 59C37.7522 59 35.4562 59.056 33.0295 59.168C32.6562 59.168 32.3949 59.0373 32.2455 58.776C32.0962 58.5147 32.0215 58.2347 32.0215 57.936C32.0589 57.3013 32.2082 56.9467 32.4695 56.872C32.7309 56.7973 33.0482 56.76 33.4215 56.76C34.6162 56.76 35.4562 56.5547 35.9415 56.144C36.4269 55.696 36.7255 55.1547 36.8375 54.52C36.9869 53.848 37.0615 53.1573 37.0615 52.448V30.216H36.8935L25.3575 58.72C25.2829 58.9067 25.1335 59.0373 24.9095 59.112C24.6855 59.224 24.4615 59.28 24.2375 59.28ZM62.2073 59.672C59.5939 59.672 57.2979 59.056 55.3193 57.824C53.3779 56.592 51.8659 54.9867 50.7833 53.008C49.7006 51.0293 49.1593 48.92 49.1593 46.68C49.1593 44.4773 49.5513 42.5173 50.3353 40.8C51.1193 39.0827 52.1459 37.6453 53.4153 36.488C54.7219 35.3307 56.1406 34.4533 57.6713 33.856C59.2019 33.2587 60.7139 32.96 62.2073 32.96C64.8206 32.96 67.0979 33.576 69.0393 34.808C71.0179 36.04 72.5486 37.6453 73.6313 39.624C74.7139 41.6027 75.2553 43.712 75.2553 45.952C75.2553 48.1547 74.8446 50.1147 74.0233 51.832C73.2393 53.5493 72.1939 54.9867 70.8873 56.144C69.6179 57.3013 68.2179 58.1787 66.6873 58.776C65.1566 59.3733 63.6633 59.672 62.2073 59.672ZM62.2073 57.6C64.0366 57.6 65.4739 57.0587 66.5193 55.976C67.6019 54.8933 68.3673 53.4747 68.8153 51.72C69.3006 49.928 69.5433 48.0053 69.5433 45.952C69.5433 43.9733 69.3006 42.1627 68.8153 40.52C68.3299 38.8773 67.5459 37.552 66.4633 36.544C65.3806 35.536 63.9619 35.032 62.2073 35.032C60.3779 35.032 58.9219 35.5733 57.8393 36.656C56.7566 37.7013 55.9913 39.1013 55.5433 40.856C55.0953 42.5733 54.8713 44.4773 54.8713 46.568C54.8713 48.5093 55.0953 50.32 55.5433 52C56.0286 53.68 56.8126 55.0427 57.8953 56.088C58.9779 57.096 60.4153 57.6 62.2073 57.6ZM79.9588 59.168C79.6975 59.168 79.4735 59.056 79.2868 58.832C79.1375 58.5707 79.0628 58.3093 79.0628 58.048C79.1375 57.488 79.2868 57.1893 79.5108 57.152C79.7348 57.0773 80.0335 57.04 80.4068 57.04C81.4522 57.04 82.1615 56.872 82.5348 56.536C82.9082 56.1627 83.1135 55.6773 83.1508 55.08C83.2255 54.4827 83.2628 53.8667 83.2628 53.232V40.408C83.2628 39.736 83.2255 39.12 83.1508 38.56C83.1135 37.9627 82.9082 37.496 82.5348 37.16C82.1615 36.7867 81.4522 36.6 80.4068 36.6C80.0708 36.6 79.7535 36.5627 79.4548 36.488C79.1935 36.376 79.0628 36.04 79.0628 35.48C79.0628 34.92 79.3615 34.584 79.9588 34.472C81.6762 34.2107 82.9828 33.9493 83.8788 33.688C84.8122 33.4267 85.5028 33.2027 85.9508 33.016C86.4362 32.8293 86.8655 32.7173 87.2388 32.68C87.5375 32.6427 87.7802 32.6987 87.9668 32.848C88.1908 32.9973 88.3028 33.296 88.3028 33.744V37.216H88.4708C89.7402 35.984 91.0468 34.976 92.3908 34.192C93.7348 33.3707 94.9668 32.96 96.0868 32.96C97.3935 32.96 98.3828 33.4453 99.0548 34.416C99.7642 35.3867 100.119 36.4133 100.119 37.496C100.119 38.4293 99.8202 39.344 99.2228 40.24C98.6255 41.0987 97.7295 41.528 96.5348 41.528C95.9375 41.528 95.4522 41.416 95.0788 41.192C94.7428 40.9307 94.5562 40.744 94.5188 40.632C94.5188 40.5573 94.6868 40.3333 95.0228 39.96C95.3962 39.5867 95.5828 39.12 95.5828 38.56C95.5828 37.888 95.3962 37.3467 95.0228 36.936C94.6868 36.5253 94.2202 36.32 93.6228 36.32C92.9882 36.32 92.1668 36.6373 91.1588 37.272C90.1882 37.9067 89.2548 38.672 88.3588 39.568V53.232C88.3588 53.8667 88.3775 54.4827 88.4148 55.08C88.4895 55.6773 88.7135 56.1627 89.0868 56.536C89.4975 56.872 90.2255 57.04 91.2708 57.04C91.6068 57.04 91.8868 57.0773 92.1108 57.152C92.3722 57.1893 92.5215 57.488 92.5588 58.048C92.5588 58.3093 92.4842 58.5707 92.3348 58.832C92.1855 59.056 91.9615 59.168 91.6628 59.168C90.5802 59.0933 89.5722 59.0373 88.6388 59C87.7428 59 86.7908 59 85.7828 59C84.7748 59 83.8228 59 82.9268 59C82.0308 59.0373 81.0415 59.0933 79.9588 59.168ZM113.1 59.952C111.98 59.952 110.916 59.672 109.908 59.112C108.9 58.552 108.06 57.6933 107.388 56.536C106.753 55.3787 106.436 53.9227 106.436 52.168V35.704L103.188 35.816C102.927 35.816 102.721 35.7227 102.572 35.536C102.46 35.312 102.404 35.0693 102.404 34.808C102.404 34.0613 102.665 33.632 103.188 33.52C104.569 33.2587 105.615 32.8293 106.324 32.232C107.033 31.5973 107.575 30.8507 107.948 29.992C108.359 29.1333 108.732 28.2 109.068 27.192C109.18 26.8933 109.348 26.7067 109.572 26.632C109.796 26.52 110.039 26.464 110.3 26.464C110.524 26.464 110.767 26.52 111.028 26.632C111.327 26.744 111.476 26.9493 111.476 27.248L111.084 33.632L117.636 33.24C117.972 33.2027 118.196 33.296 118.308 33.52C118.42 33.744 118.476 34.0053 118.476 34.304C118.476 34.6773 118.401 35.0507 118.252 35.424C118.14 35.7973 117.991 35.984 117.804 35.984L111.532 35.816V52.84C111.532 53.9227 111.756 54.912 112.204 55.808C112.689 56.704 113.548 57.152 114.78 57.152C115.191 57.152 115.657 57.1147 116.18 57.04C116.703 56.9653 117.263 56.7973 117.86 56.536C118.009 56.4613 118.159 56.4053 118.308 56.368C118.457 56.2933 118.607 56.256 118.756 56.256C119.055 56.256 119.279 56.3867 119.428 56.648C119.577 56.872 119.708 57.1147 119.82 57.376C119.932 57.712 119.839 57.9733 119.54 58.16C118.383 58.9067 117.319 59.392 116.348 59.616C115.377 59.84 114.295 59.952 113.1 59.952ZM124.967 59.168C124.705 59.168 124.481 59.056 124.295 58.832C124.145 58.5707 124.071 58.3093 124.071 58.048C124.145 57.488 124.295 57.1893 124.519 57.152C124.743 57.0773 125.041 57.04 125.415 57.04C126.46 57.04 127.169 56.872 127.543 56.536C127.916 56.1627 128.121 55.6773 128.159 55.08C128.233 54.4827 128.271 53.8667 128.271 53.232V40.408C128.271 39.736 128.233 39.12 128.159 38.56C128.121 37.9627 127.916 37.496 127.543 37.16C127.169 36.7867 126.46 36.6 125.415 36.6C125.079 36.6 124.761 36.5627 124.463 36.488C124.201 36.376 124.071 36.04 124.071 35.48C124.071 34.92 124.369 34.584 124.967 34.472C126.684 34.2107 127.991 33.9493 128.887 33.688C129.82 33.4267 130.529 33.2027 131.015 33.016C131.5 32.8293 131.929 32.7173 132.303 32.68C132.601 32.6427 132.844 32.6987 133.031 32.848C133.255 32.9973 133.367 33.296 133.367 33.744V53.232C133.367 53.8667 133.385 54.4827 133.423 55.08C133.497 55.6773 133.721 56.1627 134.095 56.536C134.505 56.872 135.233 57.04 136.279 57.04C136.615 57.04 136.895 57.0773 137.119 57.152C137.38 57.1893 137.529 57.488 137.567 58.048C137.567 58.3093 137.492 58.5707 137.343 58.832C137.193 59.056 136.969 59.168 136.671 59.168C135.588 59.0933 134.58 59.0373 133.647 59C132.751 59 131.799 59 130.791 59C129.783 59 128.831 59 127.935 59C127.039 59.0373 126.049 59.0933 124.967 59.168ZM130.511 26.464C129.465 26.464 128.588 26.1467 127.879 25.512C127.169 24.84 126.815 24.0187 126.815 23.048C126.815 22.1893 127.244 21.424 128.103 20.752C128.961 20.08 129.932 19.744 131.015 19.744C131.948 19.744 132.713 20.08 133.311 20.752C133.908 21.3867 134.207 22.208 134.207 23.216C134.207 24.112 133.852 24.8773 133.143 25.512C132.433 26.1467 131.556 26.464 130.511 26.464ZM151.001 59.672C148.126 59.672 145.718 59.168 143.777 58.16C141.873 57.1147 140.921 55.6213 140.921 53.68C140.921 52.5973 141.238 51.72 141.873 51.048C142.545 50.376 143.404 50.04 144.449 50.04C145.121 50.04 145.662 50.2267 146.073 50.6C146.521 50.936 146.745 51.1787 146.745 51.328C146.745 51.44 146.521 51.7013 146.073 52.112C145.662 52.4853 145.457 53.1013 145.457 53.96C145.457 55.0053 145.942 55.8827 146.913 56.592C147.921 57.264 149.433 57.6 151.449 57.6C153.204 57.6 154.566 57.2267 155.537 56.48C156.545 55.696 157.049 54.6133 157.049 53.232C157.049 52.112 156.676 51.2533 155.929 50.656C155.22 50.0213 154.286 49.5173 153.129 49.144C152.009 48.7707 150.796 48.3973 149.489 48.024C148.22 47.6507 147.006 47.184 145.849 46.624C144.692 46.064 143.74 45.2987 142.993 44.328C142.284 43.32 141.929 41.9947 141.929 40.352C141.929 38.672 142.433 37.2907 143.441 36.208C144.449 35.1253 145.737 34.3227 147.305 33.8C148.873 33.24 150.46 32.96 152.065 32.96C153.446 32.96 154.753 33.1653 155.985 33.576C157.217 33.9493 158.225 34.528 159.009 35.312C159.83 36.096 160.241 37.0853 160.241 38.28C160.241 39.2133 159.942 40.0533 159.345 40.8C158.748 41.5467 157.926 41.92 156.881 41.92C156.209 41.92 155.649 41.752 155.201 41.416C154.79 41.0427 154.585 40.7813 154.585 40.632C154.585 40.5573 154.716 40.4267 154.977 40.24C155.276 40.016 155.556 39.736 155.817 39.4C156.078 39.0267 156.209 38.56 156.209 38C156.134 36.9173 155.612 36.1147 154.641 35.592C153.67 35.0693 152.588 34.808 151.393 34.808C150.086 34.808 148.873 35.1253 147.753 35.76C146.633 36.3947 146.073 37.3093 146.073 38.504C146.073 39.5867 146.297 40.4267 146.745 41.024C147.23 41.6213 147.977 42.144 148.985 42.592C150.03 43.0027 151.374 43.4693 153.017 43.992C154.66 44.5147 156.097 45.056 157.329 45.616C158.598 46.176 159.569 46.9227 160.241 47.856C160.95 48.752 161.305 49.984 161.305 51.552C161.305 53.12 160.857 54.52 159.961 55.752C159.065 56.984 157.833 57.9547 156.265 58.664C154.734 59.336 152.98 59.672 151.001 59.672ZM179.021 59.672C176.146 59.672 173.72 59.056 171.741 57.824C169.8 56.592 168.344 54.9493 167.373 52.896C166.402 50.8427 165.917 48.6027 165.917 46.176C165.917 44.5333 166.197 42.9467 166.757 41.416C167.354 39.848 168.194 38.4293 169.277 37.16C170.36 35.8533 171.666 34.8267 173.197 34.08C174.728 33.3333 176.464 32.96 178.405 32.96C181.84 32.96 184.416 33.856 186.133 35.648C187.888 37.4027 188.896 39.6427 189.157 42.368C189.157 43.6747 188.784 44.5333 188.037 44.944C187.328 45.3547 186.394 45.56 185.237 45.56H171.629C171.629 47.7253 171.928 49.6667 172.525 51.384C173.122 53.064 174.056 54.408 175.325 55.416C176.632 56.3867 178.349 56.872 180.477 56.872C182.045 56.872 183.389 56.536 184.509 55.864C185.629 55.192 186.712 54.016 187.757 52.336C188.056 51.9627 188.466 51.944 188.989 52.28C189.288 52.4293 189.474 52.672 189.549 53.008C189.624 53.3067 189.586 53.568 189.437 53.792C188.28 55.6213 186.824 57.0587 185.069 58.104C183.314 59.1493 181.298 59.672 179.021 59.672ZM171.629 43.432H180.757C181.653 43.432 182.362 43.264 182.885 42.928C183.445 42.5547 183.744 41.9387 183.781 41.08C183.781 39.4747 183.333 38.056 182.437 36.824C181.578 35.5547 180.234 34.92 178.405 34.92C176.538 34.92 174.97 35.6667 173.701 37.16C172.469 38.6533 171.778 40.744 171.629 43.432Z" fill="#171717"/>
<path d="M208.792 33.3075C208.382 32.8975 207.718 32.8975 207.308 33.3075C206.897 33.7176 206.897 34.3824 207.308 34.7925L212.515 40L207.308 45.2075C206.897 45.6176 206.897 46.2824 207.308 46.6925C207.718 47.1025 208.382 47.1025 208.792 46.6925L214 41.4849L219.208 46.6925C219.618 47.1025 220.282 47.1025 220.692 46.6925C221.103 46.2824 221.103 45.6176 220.692 45.2075L215.485 40L220.692 34.7925C221.103 34.3824 221.103 33.7176 220.692 33.3075C220.282 32.8975 219.618 32.8975 219.208 33.3075L214 38.5151L208.792 33.3075Z" fill="#171717"/>
<path d="M236 17.22C236 15.7178 237.23 14.5 238.748 14.5H351.423C352.94 14.5 354.171 15.7178 354.171 17.22V62.78C354.171 64.2822 352.94 65.5 351.423 65.5H238.748C237.23 65.5 236 64.2822 236 62.78V17.22Z" fill="#171717"/>
<path d="M266.818 35.6727C265.081 33.5698 262.935 32.5183 260.38 32.5183C259.256 32.5183 258.209 32.721 257.238 33.1264C256.293 33.5318 255.475 34.0892 254.785 34.7986C254.096 35.4827 253.546 36.3061 253.138 37.2688C252.755 38.2316 252.563 39.2704 252.563 40.3852C252.563 41.5253 252.755 42.5767 253.138 43.5395C253.546 44.5023 254.096 45.3384 254.785 46.0478C255.501 46.7572 256.331 47.3146 257.276 47.72C258.221 48.1253 259.243 48.328 260.342 48.328C262.743 48.328 264.902 47.3146 266.818 45.2877V54.1046L266.051 54.3707C264.902 54.7761 263.829 55.0674 262.833 55.2448C261.836 55.4475 260.853 55.5488 259.882 55.5488C257.889 55.5488 255.973 55.1814 254.134 54.4467C252.32 53.6866 250.711 52.6352 249.306 51.2923C247.926 49.9242 246.815 48.3154 245.972 46.4658C245.129 44.591 244.707 42.5514 244.707 40.3472C244.707 38.1429 245.116 36.1287 245.934 34.3045C246.777 32.455 247.888 30.8715 249.267 29.554C250.672 28.2112 252.295 27.1724 254.134 26.4377C255.973 25.6776 257.902 25.2976 259.92 25.2976C261.07 25.2976 262.194 25.4242 263.292 25.6776C264.416 25.9056 265.592 26.273 266.818 26.7797V35.6727Z" fill="#FAFAFA"/>
<path d="M277.47 44.9077C277.47 45.5664 277.585 46.1745 277.815 46.7319C278.071 47.2639 278.39 47.7326 278.773 48.138C279.182 48.5434 279.655 48.8601 280.191 49.0881C280.753 49.3161 281.341 49.4301 281.954 49.4301C282.567 49.4301 283.142 49.3161 283.678 49.0881C284.24 48.8601 284.713 48.5434 285.096 48.138C285.505 47.7326 285.824 47.2639 286.054 46.7319C286.309 46.1745 286.437 45.5791 286.437 44.9457C286.437 44.3376 286.309 43.7675 286.054 43.2355C285.824 42.6781 285.505 42.1967 285.096 41.7913C284.713 41.386 284.24 41.0693 283.678 40.8412C283.142 40.6132 282.567 40.4992 281.954 40.4992C281.341 40.4992 280.753 40.6132 280.191 40.8412C279.655 41.0693 279.182 41.386 278.773 41.7913C278.39 42.1967 278.071 42.6654 277.815 43.1975C277.585 43.7295 277.47 44.2996 277.47 44.9077ZM270.151 44.8317C270.151 43.3875 270.445 42.0447 271.033 40.8032C271.62 39.5364 272.438 38.447 273.485 37.5349C274.533 36.5974 275.772 35.8627 277.202 35.3306C278.658 34.7986 280.242 34.5326 281.954 34.5326C283.64 34.5326 285.198 34.7986 286.629 35.3306C288.085 35.8374 289.337 36.5594 290.384 37.4969C291.457 38.409 292.287 39.5111 292.875 40.8032C293.462 42.07 293.756 43.4762 293.756 45.0217C293.756 46.5672 293.45 47.986 292.837 49.2781C292.249 50.5449 291.432 51.6471 290.384 52.5845C289.337 53.4966 288.072 54.206 286.59 54.7127C285.134 55.2194 283.55 55.4728 281.839 55.4728C280.153 55.4728 278.594 55.2194 277.164 54.7127C275.733 54.206 274.494 53.4839 273.447 52.5465C272.425 51.609 271.62 50.4943 271.033 49.2021C270.445 47.8846 270.151 46.4278 270.151 44.8317Z" fill="#FAFAFA"/>
<path d="M304.187 44.9457C304.187 45.5791 304.302 46.1745 304.532 46.7319C304.761 47.2639 305.068 47.7326 305.451 48.138C305.86 48.5434 306.333 48.8601 306.869 49.0881C307.431 49.3161 308.031 49.4301 308.67 49.4301C309.283 49.4301 309.858 49.3161 310.394 49.0881C310.956 48.8601 311.429 48.5434 311.812 48.138C312.221 47.7326 312.54 47.2639 312.77 46.7319C313.026 46.1998 313.153 45.6297 313.153 45.0217C313.153 44.4136 313.026 43.8435 312.77 43.3115C312.54 42.7541 312.221 42.2727 311.812 41.8673C311.429 41.462 310.956 41.1453 310.394 40.9172C309.858 40.6892 309.283 40.5752 308.67 40.5752C308.057 40.5752 307.469 40.6892 306.907 40.9172C306.371 41.1453 305.898 41.462 305.49 41.8673C305.106 42.2727 304.787 42.7414 304.532 43.2735C304.302 43.7802 304.187 44.3376 304.187 44.9457ZM312.924 23.2073H319.898V54.7507H312.924V52.5845C311.442 54.434 309.436 55.3588 306.907 55.3588C305.477 55.3588 304.161 55.0928 302.96 54.5607C301.76 54.0286 300.712 53.2939 299.818 52.3565C298.924 51.419 298.222 50.3169 297.711 49.0501C297.225 47.7833 296.983 46.4152 296.983 44.9457C296.983 43.5522 297.212 42.2347 297.672 40.9932C298.158 39.7264 298.835 38.6243 299.703 37.6869C300.572 36.7495 301.606 36.0147 302.807 35.4827C304.033 34.9253 305.375 34.6466 306.831 34.6466C309.283 34.6466 311.314 35.4953 312.924 37.1928V23.2073Z" fill="#FAFAFA"/>
<path d="M338.987 42.1714C338.758 41.2086 338.285 40.4359 337.57 39.8531C336.854 39.2704 335.986 38.979 334.964 38.979C333.891 38.979 333.01 39.2577 332.32 39.8151C331.656 40.3725 331.234 41.1579 331.055 42.1714H338.987ZM330.864 46.1618C330.864 49.1261 332.269 50.6083 335.079 50.6083C336.586 50.6083 337.723 50.0002 338.489 48.7841H345.195C343.841 53.2432 340.456 55.4728 335.041 55.4728C333.38 55.4728 331.86 55.2321 330.481 54.7507C329.101 54.244 327.913 53.5346 326.917 52.6225C325.946 51.7104 325.192 50.6209 324.656 49.3541C324.119 48.0873 323.851 46.6685 323.851 45.0977C323.851 43.4762 324.107 42.0194 324.618 40.7272C325.129 39.4097 325.857 38.295 326.802 37.3829C327.747 36.4708 328.884 35.774 330.212 35.2926C331.566 34.7859 333.086 34.5326 334.772 34.5326C336.433 34.5326 337.927 34.7859 339.256 35.2926C340.584 35.774 341.708 36.4834 342.628 37.4209C343.548 38.3583 344.25 39.5111 344.735 40.8792C345.221 42.222 345.464 43.7422 345.464 45.4397V46.1618H330.864Z" fill="#FAFAFA"/>
</svg>
