<svg width="341" height="43" viewBox="0 0 341 43" fill="none" xmlns="http://www.w3.org/2000/svg">
<path d="M22.4289 41.28C22.2049 41.28 21.9809 41.224 21.7569 41.112C21.5329 41.0373 21.3649 40.9067 21.2529 40.72L8.65294 12.216H8.48494L8.59694 34.448C8.63427 35.1573 8.69027 35.848 8.76494 36.52C8.87694 37.1547 9.1756 37.696 9.66094 38.144C10.1463 38.5547 10.9676 38.76 12.1249 38.76C12.5356 38.76 12.8716 38.7973 13.1329 38.872C13.3943 38.9467 13.5436 39.3013 13.5809 39.936C13.5809 40.2347 13.4876 40.5147 13.3009 40.776C13.1516 41.0373 12.9089 41.168 12.5729 41.168C11.7889 41.1307 11.1543 41.0933 10.6689 41.056C10.1836 41.056 9.71694 41.0373 9.26894 41C8.82094 41 8.2236 41 7.47694 41C6.35694 41 5.44227 41 4.73294 41C4.06094 41.0373 3.1276 41.0933 1.93294 41.168C1.5596 41.168 1.29827 41.0373 1.14894 40.776C0.999604 40.5147 0.924938 40.2347 0.924938 39.936C0.962271 39.3013 1.1116 38.9467 1.37294 38.872C1.63427 38.7973 1.9516 38.76 2.32494 38.76C3.5196 38.76 4.34094 38.5547 4.78894 38.144C5.27427 37.696 5.57294 37.1547 5.68494 36.52C5.79694 35.848 5.85294 35.1573 5.85294 34.448L5.96494 12.216C5.96494 11.0213 5.83427 10.144 5.57294 9.584C5.3116 8.98666 4.90094 8.576 4.34094 8.352C3.78094 8.09067 3.0716 7.88533 2.21294 7.736C1.69027 7.624 1.31694 7.53067 1.09294 7.456C0.906271 7.38133 0.812938 7.04533 0.812938 6.448C0.812938 5.81333 1.03694 5.47733 1.48494 5.44C1.93294 5.36533 2.4556 5.328 3.05294 5.328C4.88227 5.328 6.4876 5.47733 7.86894 5.776C9.2876 6.07466 10.5196 6.65333 11.5649 7.512C12.6103 8.33333 13.4689 9.584 14.1409 11.264L23.7729 32.88H23.9409L34.9729 5.664H38.1649C39.2849 5.664 40.3676 5.64533 41.4129 5.608C42.4956 5.57067 43.6343 5.53333 44.8289 5.496C45.2023 5.496 45.4636 5.62667 45.6129 5.888C45.7623 6.14933 45.8369 6.42933 45.8369 6.728C45.7996 7.36266 45.6503 7.71733 45.3889 7.792C45.1276 7.86666 44.8103 7.904 44.4369 7.904C43.2796 7.904 42.4396 8.128 41.9169 8.576C41.4316 8.98666 41.1329 9.528 41.0209 10.2C40.9089 10.8347 40.8343 11.5067 40.7969 12.216V34.448C40.8343 35.1573 40.9089 35.848 41.0209 36.52C41.1329 37.1547 41.4316 37.696 41.9169 38.144C42.4396 38.5547 43.2796 38.76 44.4369 38.76C44.8103 38.76 45.1276 38.7973 45.3889 38.872C45.6503 38.9467 45.7996 39.3013 45.8369 39.936C45.8369 40.2347 45.7623 40.5147 45.6129 40.776C45.4636 41.0373 45.2023 41.168 44.8289 41.168C43.6343 41.0933 42.4956 41.0373 41.4129 41C40.3303 41 39.2289 41 38.1089 41C35.9436 41 33.6476 41.056 31.2209 41.168C30.8476 41.168 30.5863 41.0373 30.4369 40.776C30.2876 40.5147 30.2129 40.2347 30.2129 39.936C30.2503 39.3013 30.3996 38.9467 30.6609 38.872C30.9223 38.7973 31.2396 38.76 31.6129 38.76C32.8076 38.76 33.6476 38.5547 34.1329 38.144C34.6183 37.696 34.9169 37.1547 35.0289 36.52C35.1783 35.848 35.2529 35.1573 35.2529 34.448V12.216H35.0849L23.5489 40.72C23.4743 40.9067 23.3249 41.0373 23.1009 41.112C22.8769 41.224 22.6529 41.28 22.4289 41.28ZM60.3987 41.672C57.7854 41.672 55.4894 41.056 53.5107 39.824C51.5694 38.592 50.0574 36.9867 48.9747 35.008C47.892 33.0293 47.3507 30.92 47.3507 28.68C47.3507 26.4773 47.7427 24.5173 48.5267 22.8C49.3107 21.0827 50.3374 19.6453 51.6067 18.488C52.9134 17.3307 54.332 16.4533 55.8627 15.856C57.3934 15.2587 58.9054 14.96 60.3987 14.96C63.012 14.96 65.2894 15.576 67.2307 16.808C69.2094 18.04 70.74 19.6453 71.8227 21.624C72.9054 23.6027 73.4467 25.712 73.4467 27.952C73.4467 30.1547 73.036 32.1147 72.2147 33.832C71.4307 35.5493 70.3854 36.9867 69.0787 38.144C67.8094 39.3013 66.4094 40.1787 64.8787 40.776C63.348 41.3733 61.8547 41.672 60.3987 41.672ZM60.3987 39.6C62.228 39.6 63.6654 39.0587 64.7107 37.976C65.7934 36.8933 66.5587 35.4747 67.0067 33.72C67.492 31.928 67.7347 30.0053 67.7347 27.952C67.7347 25.9733 67.492 24.1627 67.0067 22.52C66.5214 20.8773 65.7374 19.552 64.6547 18.544C63.572 17.536 62.1534 17.032 60.3987 17.032C58.5694 17.032 57.1134 17.5733 56.0307 18.656C54.948 19.7013 54.1827 21.1013 53.7347 22.856C53.2867 24.5733 53.0627 26.4773 53.0627 28.568C53.0627 30.5093 53.2867 32.32 53.7347 34C54.22 35.68 55.004 37.0427 56.0867 38.088C57.1694 39.096 58.6067 39.6 60.3987 39.6ZM78.1503 41.168C77.8889 41.168 77.6649 41.056 77.4783 40.832C77.3289 40.5707 77.2542 40.3093 77.2542 40.048C77.3289 39.488 77.4783 39.1893 77.7023 39.152C77.9263 39.0773 78.2249 39.04 78.5983 39.04C79.6436 39.04 80.3529 38.872 80.7263 38.536C81.0996 38.1627 81.3049 37.6773 81.3423 37.08C81.4169 36.4827 81.4543 35.8667 81.4543 35.232V22.408C81.4543 21.736 81.4169 21.12 81.3423 20.56C81.3049 19.9627 81.0996 19.496 80.7263 19.16C80.3529 18.7867 79.6436 18.6 78.5983 18.6C78.2623 18.6 77.9449 18.5627 77.6463 18.488C77.3849 18.376 77.2542 18.04 77.2542 17.48C77.2542 16.92 77.5529 16.584 78.1503 16.472C79.8676 16.2107 81.1743 15.9493 82.0703 15.688C83.0036 15.4267 83.6943 15.2027 84.1423 15.016C84.6276 14.8293 85.0569 14.7173 85.4303 14.68C85.7289 14.6427 85.9716 14.6987 86.1583 14.848C86.3823 14.9973 86.4943 15.296 86.4943 15.744V19.216H86.6623C87.9316 17.984 89.2383 16.976 90.5823 16.192C91.9263 15.3707 93.1583 14.96 94.2783 14.96C95.5849 14.96 96.5743 15.4453 97.2463 16.416C97.9556 17.3867 98.3103 18.4133 98.3103 19.496C98.3103 20.4293 98.0116 21.344 97.4143 22.24C96.8169 23.0987 95.9209 23.528 94.7263 23.528C94.1289 23.528 93.6436 23.416 93.2703 23.192C92.9343 22.9307 92.7476 22.744 92.7103 22.632C92.7103 22.5573 92.8783 22.3333 93.2143 21.96C93.5876 21.5867 93.7743 21.12 93.7743 20.56C93.7743 19.888 93.5876 19.3467 93.2143 18.936C92.8783 18.5253 92.4116 18.32 91.8143 18.32C91.1796 18.32 90.3583 18.6373 89.3503 19.272C88.3796 19.9067 87.4463 20.672 86.5503 21.568V35.232C86.5503 35.8667 86.5689 36.4827 86.6063 37.08C86.6809 37.6773 86.9049 38.1627 87.2783 38.536C87.6889 38.872 88.4169 39.04 89.4623 39.04C89.7983 39.04 90.0783 39.0773 90.3023 39.152C90.5636 39.1893 90.7129 39.488 90.7503 40.048C90.7503 40.3093 90.6756 40.5707 90.5263 40.832C90.3769 41.056 90.1529 41.168 89.8543 41.168C88.7716 41.0933 87.7636 41.0373 86.8303 41C85.9343 41 84.9823 41 83.9743 41C82.9663 41 82.0143 41 81.1183 41C80.2223 41.0373 79.2329 41.0933 78.1503 41.168ZM111.291 41.952C110.171 41.952 109.107 41.672 108.099 41.112C107.091 40.552 106.251 39.6933 105.579 38.536C104.945 37.3787 104.627 35.9227 104.627 34.168V17.704L101.379 17.816C101.118 17.816 100.913 17.7227 100.763 17.536C100.651 17.312 100.595 17.0693 100.595 16.808C100.595 16.0613 100.857 15.632 101.379 15.52C102.761 15.2587 103.806 14.8293 104.515 14.232C105.225 13.5973 105.766 12.8507 106.139 11.992C106.55 11.1333 106.923 10.2 107.259 9.192C107.371 8.89333 107.539 8.70667 107.763 8.632C107.987 8.52 108.23 8.464 108.491 8.464C108.715 8.464 108.958 8.52 109.219 8.632C109.518 8.744 109.667 8.94933 109.667 9.248L109.275 15.632L115.827 15.24C116.163 15.2027 116.387 15.296 116.499 15.52C116.611 15.744 116.667 16.0053 116.667 16.304C116.667 16.6773 116.593 17.0507 116.443 17.424C116.331 17.7973 116.182 17.984 115.995 17.984L109.723 17.816V34.84C109.723 35.9227 109.947 36.912 110.395 37.808C110.881 38.704 111.739 39.152 112.971 39.152C113.382 39.152 113.849 39.1147 114.371 39.04C114.894 38.9653 115.454 38.7973 116.051 38.536C116.201 38.4613 116.35 38.4053 116.499 38.368C116.649 38.2933 116.798 38.256 116.947 38.256C117.246 38.256 117.47 38.3867 117.619 38.648C117.769 38.872 117.899 39.1147 118.011 39.376C118.123 39.712 118.03 39.9733 117.731 40.16C116.574 40.9067 115.51 41.392 114.539 41.616C113.569 41.84 112.486 41.952 111.291 41.952ZM123.158 41.168C122.897 41.168 122.673 41.056 122.486 40.832C122.337 40.5707 122.262 40.3093 122.262 40.048C122.337 39.488 122.486 39.1893 122.71 39.152C122.934 39.0773 123.233 39.04 123.606 39.04C124.651 39.04 125.361 38.872 125.734 38.536C126.107 38.1627 126.313 37.6773 126.35 37.08C126.425 36.4827 126.462 35.8667 126.462 35.232V22.408C126.462 21.736 126.425 21.12 126.35 20.56C126.313 19.9627 126.107 19.496 125.734 19.16C125.361 18.7867 124.651 18.6 123.606 18.6C123.27 18.6 122.953 18.5627 122.654 18.488C122.393 18.376 122.262 18.04 122.262 17.48C122.262 16.92 122.561 16.584 123.158 16.472C124.875 16.2107 126.182 15.9493 127.078 15.688C128.011 15.4267 128.721 15.2027 129.206 15.016C129.691 14.8293 130.121 14.7173 130.494 14.68C130.793 14.6427 131.035 14.6987 131.222 14.848C131.446 14.9973 131.558 15.296 131.558 15.744V35.232C131.558 35.8667 131.577 36.4827 131.614 37.08C131.689 37.6773 131.913 38.1627 132.286 38.536C132.697 38.872 133.425 39.04 134.47 39.04C134.806 39.04 135.086 39.0773 135.31 39.152C135.571 39.1893 135.721 39.488 135.758 40.048C135.758 40.3093 135.683 40.5707 135.534 40.832C135.385 41.056 135.161 41.168 134.862 41.168C133.779 41.0933 132.771 41.0373 131.838 41C130.942 41 129.99 41 128.982 41C127.974 41 127.022 41 126.126 41C125.23 41.0373 124.241 41.0933 123.158 41.168ZM128.702 8.464C127.657 8.464 126.779 8.14666 126.07 7.512C125.361 6.84 125.006 6.01866 125.006 5.048C125.006 4.18933 125.435 3.424 126.294 2.752C127.153 2.08 128.123 1.744 129.206 1.744C130.139 1.744 130.905 2.08 131.502 2.752C132.099 3.38667 132.398 4.208 132.398 5.216C132.398 6.112 132.043 6.87733 131.334 7.512C130.625 8.14666 129.747 8.464 128.702 8.464ZM149.192 41.672C146.318 41.672 143.91 41.168 141.968 40.16C140.064 39.1147 139.112 37.6213 139.112 35.68C139.112 34.5973 139.43 33.72 140.064 33.048C140.736 32.376 141.595 32.04 142.64 32.04C143.312 32.04 143.854 32.2267 144.264 32.6C144.712 32.936 144.936 33.1787 144.936 33.328C144.936 33.44 144.712 33.7013 144.264 34.112C143.854 34.4853 143.648 35.1013 143.648 35.96C143.648 37.0053 144.134 37.8827 145.104 38.592C146.112 39.264 147.624 39.6 149.64 39.6C151.395 39.6 152.758 39.2267 153.728 38.48C154.736 37.696 155.24 36.6133 155.24 35.232C155.24 34.112 154.867 33.2533 154.12 32.656C153.411 32.0213 152.478 31.5173 151.32 31.144C150.2 30.7707 148.987 30.3973 147.68 30.024C146.411 29.6507 145.198 29.184 144.04 28.624C142.883 28.064 141.931 27.2987 141.184 26.328C140.475 25.32 140.12 23.9947 140.12 22.352C140.12 20.672 140.624 19.2907 141.632 18.208C142.64 17.1253 143.928 16.3227 145.496 15.8C147.064 15.24 148.651 14.96 150.256 14.96C151.638 14.96 152.944 15.1653 154.176 15.576C155.408 15.9493 156.416 16.528 157.2 17.312C158.022 18.096 158.432 19.0853 158.432 20.28C158.432 21.2133 158.134 22.0533 157.536 22.8C156.939 23.5467 156.118 23.92 155.072 23.92C154.4 23.92 153.84 23.752 153.392 23.416C152.982 23.0427 152.776 22.7813 152.776 22.632C152.776 22.5573 152.907 22.4267 153.168 22.24C153.467 22.016 153.747 21.736 154.008 21.4C154.27 21.0267 154.4 20.56 154.4 20C154.326 18.9173 153.803 18.1147 152.832 17.592C151.862 17.0693 150.779 16.808 149.584 16.808C148.278 16.808 147.064 17.1253 145.944 17.76C144.824 18.3947 144.264 19.3093 144.264 20.504C144.264 21.5867 144.488 22.4267 144.936 23.024C145.422 23.6213 146.168 24.144 147.176 24.592C148.222 25.0027 149.566 25.4693 151.208 25.992C152.851 26.5147 154.288 27.056 155.52 27.616C156.79 28.176 157.76 28.9227 158.432 29.856C159.142 30.752 159.496 31.984 159.496 33.552C159.496 35.12 159.048 36.52 158.152 37.752C157.256 38.984 156.024 39.9547 154.456 40.664C152.926 41.336 151.171 41.672 149.192 41.672ZM177.213 41.672C174.338 41.672 171.911 41.056 169.933 39.824C167.991 38.592 166.535 36.9493 165.565 34.896C164.594 32.8427 164.109 30.6027 164.109 28.176C164.109 26.5333 164.389 24.9467 164.949 23.416C165.546 21.848 166.386 20.4293 167.469 19.16C168.551 17.8533 169.858 16.8267 171.389 16.08C172.919 15.3333 174.655 14.96 176.596 14.96C180.031 14.96 182.607 15.856 184.325 17.648C186.079 19.4027 187.087 21.6427 187.349 24.368C187.349 25.6747 186.975 26.5333 186.229 26.944C185.519 27.3547 184.586 27.56 183.429 27.56H169.821C169.821 29.7253 170.119 31.6667 170.717 33.384C171.314 35.064 172.247 36.408 173.517 37.416C174.823 38.3867 176.541 38.872 178.669 38.872C180.237 38.872 181.581 38.536 182.701 37.864C183.821 37.192 184.903 36.016 185.949 34.336C186.247 33.9627 186.658 33.944 187.181 34.28C187.479 34.4293 187.666 34.672 187.741 35.008C187.815 35.3067 187.778 35.568 187.629 35.792C186.471 37.6213 185.015 39.0587 183.261 40.104C181.506 41.1493 179.49 41.672 177.213 41.672ZM169.821 25.432H178.949C179.845 25.432 180.554 25.264 181.077 24.928C181.637 24.5547 181.935 23.9387 181.973 23.08C181.973 21.4747 181.525 20.056 180.629 18.824C179.77 17.5547 178.426 16.92 176.596 16.92C174.73 16.92 173.162 17.6667 171.893 19.16C170.661 20.6533 169.97 22.744 169.821 25.432ZM223.895 42.12C221.692 42.0827 219.545 41.7653 217.455 41.168C215.401 40.608 213.553 39.7307 211.911 38.536C210.268 37.304 208.961 35.7547 207.991 33.888C207.02 32.0213 206.535 29.8 206.535 27.224C206.535 25.4693 206.871 23.8267 207.543 22.296C208.252 20.728 209.279 19.4213 210.623 18.376C212.004 17.2933 213.721 16.584 215.775 16.248V16.08C214.543 15.1467 213.647 14.1387 213.087 13.056C212.527 11.9733 212.247 10.7973 212.247 9.528C212.247 7.10133 213.124 5.14133 214.879 3.648C216.671 2.11733 219.153 1.352 222.327 1.352C223.708 1.352 224.996 1.55733 226.191 1.968C227.385 2.37866 228.356 3.01333 229.103 3.872C229.887 4.73066 230.279 5.832 230.279 7.176C230.279 8.296 229.943 9.304 229.271 10.2C228.636 11.096 227.703 11.544 226.471 11.544C225.649 11.544 225.015 11.3387 224.567 10.928C224.119 10.5173 223.895 10.2187 223.895 10.032C223.895 9.95733 224.044 9.808 224.343 9.584C224.679 9.32267 224.996 8.98666 225.295 8.576C225.593 8.128 225.743 7.58667 225.743 6.952C225.743 5.832 225.351 4.95467 224.567 4.32C223.783 3.68533 222.831 3.368 221.711 3.368C219.807 3.368 218.388 3.94666 217.455 5.104C216.521 6.224 216.055 7.53067 216.055 9.024C216.055 11.7493 217.193 13.728 219.471 14.96H221.319C221.767 14.96 222.121 14.9973 222.383 15.072C222.681 15.1467 222.849 15.5573 222.887 16.304C222.887 16.64 222.793 16.9573 222.607 17.256C222.457 17.5173 222.196 17.648 221.823 17.648H219.863C218.145 17.7973 216.745 18.32 215.663 19.216C214.58 20.0747 213.777 21.1387 213.255 22.408C212.732 23.6773 212.471 24.984 212.471 26.328C212.471 28.7547 213.031 30.864 214.151 32.656C215.271 34.448 216.82 35.8293 218.799 36.8C220.815 37.7333 223.092 38.2 225.631 38.2C228.356 38.2 230.839 37.64 233.079 36.52C235.356 35.4 237.167 33.8507 238.511 31.872C239.892 29.856 240.583 27.5787 240.583 25.04C240.583 23.696 240.321 22.408 239.799 21.176C239.313 19.944 238.567 18.936 237.559 18.152C236.551 17.368 235.319 16.976 233.863 16.976C233.265 16.976 232.575 17.1067 231.791 17.368C231.044 17.6293 230.409 18.04 229.887 18.6C229.364 19.1227 229.121 19.8133 229.159 20.672C229.196 21.1573 229.364 21.624 229.663 22.072C229.961 22.4827 230.428 22.744 231.063 22.856C231.697 22.9307 232.257 22.856 232.743 22.632C233.228 22.408 233.601 22.1653 233.863 21.904C234.161 21.6427 234.348 21.512 234.423 21.512C234.609 21.5493 234.852 21.8293 235.151 22.352C235.487 22.8747 235.599 23.528 235.487 24.312C235.337 25.32 234.889 26.104 234.143 26.664C233.433 27.1867 232.575 27.448 231.567 27.448C230.148 27.448 229.009 26.888 228.151 25.768C227.292 24.6107 226.863 23.136 226.863 21.344C226.863 19.4027 227.217 17.816 227.927 16.584C228.673 15.352 229.644 14.3813 230.839 13.672C232.071 12.9627 233.433 12.44 234.927 12.104C236.42 11.7307 237.932 11.4507 239.463 11.264C241.031 11.0773 242.524 10.9093 243.943 10.76C245.361 10.5733 246.575 10.312 247.583 9.976C248.404 9.67733 249.095 9.248 249.655 8.688C250.215 8.128 250.476 7.49333 250.439 6.784C250.401 6.336 250.233 5.944 249.935 5.608C249.636 5.272 249.113 5.048 248.367 4.936C247.732 4.86133 247.172 4.936 246.687 5.16C246.201 5.384 245.809 5.62667 245.511 5.888C245.249 6.14933 245.081 6.28 245.007 6.28C244.857 6.24266 244.615 5.96266 244.279 5.44C243.943 4.91733 243.831 4.264 243.943 3.48C244.092 2.472 244.503 1.72533 245.175 1.24C245.847 0.717331 246.612 0.418665 247.471 0.343999C248.367 0.269331 249.207 0.399998 249.991 0.735998C250.999 1.22133 251.689 1.968 252.063 2.976C252.436 3.94666 252.604 4.91733 252.567 5.888C252.529 7.94133 251.839 9.696 250.495 11.152C249.188 12.608 247.452 13.728 245.287 14.512C243.159 15.2587 240.825 15.632 238.287 15.632C239.817 16.9387 240.993 18.376 241.815 19.944C242.673 21.512 243.103 23.2293 243.103 25.096C243.103 28.6427 242.244 31.704 240.527 34.28C238.809 36.8187 236.495 38.7787 233.583 40.16C230.708 41.504 227.479 42.1573 223.895 42.12ZM285.767 42.12C282.631 42.12 279.756 41.3733 277.143 39.88C274.529 38.3867 272.42 36.2587 270.815 33.496C269.247 30.7333 268.463 27.4293 268.463 23.584C268.463 19.776 269.209 16.4533 270.703 13.616C272.196 10.7413 274.305 8.52 277.031 6.952C279.793 5.34667 283.041 4.544 286.775 4.544C288.119 4.544 289.5 4.67466 290.919 4.936C292.375 5.19733 293.719 5.64533 294.951 6.28C296.183 6.87733 297.172 7.68 297.919 8.688C298.703 9.696 299.095 10.9467 299.095 12.44C299.132 14.0453 298.647 15.464 297.639 16.696C296.631 17.8907 295.212 18.488 293.383 18.488C292.263 18.488 291.46 18.2267 290.975 17.704C290.527 17.144 290.321 16.7333 290.359 16.472C290.359 16.36 290.583 16.1733 291.031 15.912C291.516 15.6133 291.983 15.184 292.431 14.624C292.916 14.0267 293.159 13.2427 293.159 12.272C293.159 10.592 292.599 9.26666 291.479 8.296C290.359 7.288 288.772 6.784 286.719 6.784C284.479 6.784 282.463 7.41867 280.671 8.688C278.916 9.95733 277.535 11.824 276.527 14.288C275.519 16.7147 275.015 19.7013 275.015 23.248C275.015 26.2347 275.537 28.96 276.583 31.424C277.665 33.8507 279.159 35.792 281.063 37.248C283.004 38.6667 285.244 39.376 287.783 39.376C289.799 39.376 291.516 38.9653 292.935 38.144C294.391 37.2853 295.697 35.9227 296.855 34.056C297.191 33.4213 297.788 33.3653 298.647 33.888C298.983 34.112 299.244 34.392 299.431 34.728C299.617 35.0267 299.58 35.344 299.319 35.68C297.9 37.472 296.556 38.8347 295.287 39.768C294.017 40.664 292.636 41.28 291.143 41.616C289.649 41.952 287.857 42.12 285.767 42.12ZM316.391 41.672C313.778 41.672 311.482 41.056 309.503 39.824C307.562 38.592 306.05 36.9867 304.967 35.008C303.884 33.0293 303.343 30.92 303.343 28.68C303.343 26.4773 303.735 24.5173 304.519 22.8C305.303 21.0827 306.33 19.6453 307.599 18.488C308.906 17.3307 310.324 16.4533 311.855 15.856C313.386 15.2587 314.898 14.96 316.391 14.96C319.004 14.96 321.282 15.576 323.223 16.808C325.202 18.04 326.732 19.6453 327.815 21.624C328.898 23.6027 329.439 25.712 329.439 27.952C329.439 30.1547 329.028 32.1147 328.207 33.832C327.423 35.5493 326.378 36.9867 325.071 38.144C323.802 39.3013 322.402 40.1787 320.871 40.776C319.34 41.3733 317.847 41.672 316.391 41.672ZM316.391 39.6C318.22 39.6 319.658 39.0587 320.703 37.976C321.786 36.8933 322.551 35.4747 322.999 33.72C323.484 31.928 323.727 30.0053 323.727 27.952C323.727 25.9733 323.484 24.1627 322.999 22.52C322.514 20.8773 321.73 19.552 320.647 18.544C319.564 17.536 318.146 17.032 316.391 17.032C314.562 17.032 313.106 17.5733 312.023 18.656C310.94 19.7013 310.175 21.1013 309.727 22.856C309.279 24.5733 309.055 26.4773 309.055 28.568C309.055 30.5093 309.279 32.32 309.727 34C310.212 35.68 310.996 37.0427 312.079 38.088C313.162 39.096 314.599 39.6 316.391 39.6ZM337.285 41.672C336.277 41.672 335.437 41.3547 334.765 40.72C334.093 40.048 333.757 39.1893 333.757 38.144C333.757 37.1733 334.093 36.352 334.765 35.68C335.437 35.008 336.296 34.672 337.341 34.672C338.349 34.672 339.189 35.008 339.861 35.68C340.57 36.352 340.925 37.1733 340.925 38.144C340.925 39.1893 340.57 40.048 339.861 40.72C339.189 41.3547 338.33 41.672 337.285 41.672Z" fill="black"/>
</svg>
