<svg width="28" height="28" viewBox="0 0 28 28"  xmlns="http://www.w3.org/2000/svg">
<g clip-path="url(#clip0_1_91)">
<path fill-rule="evenodd" clip-rule="evenodd" d="M14.0003 0.583313C10.6767 0.585037 7.46215 1.76218 4.93135 3.90426C2.40054 6.04633 0.718556 9.01366 0.186138 12.2756C-0.346281 15.5376 0.305584 18.8816 2.02518 21.7095C3.74479 24.5375 6.41998 26.665 9.57242 27.7118C10.2679 27.8409 10.5299 27.4098 10.5299 27.0433C10.5299 26.6768 10.516 25.6142 10.5113 24.4524C6.61663 25.2938 5.79365 22.8089 5.79365 22.8089C5.15845 21.1953 4.24041 20.7712 4.24041 20.7712C2.97 19.9091 4.33547 19.9252 4.33547 19.9252C5.74266 20.0243 6.48218 21.3613 6.48218 21.3613C7.72941 23.4889 9.75788 22.8734 10.5554 22.5138C10.6805 21.6125 11.0445 20.9994 11.4456 20.6513C8.33447 20.301 5.06571 19.1069 5.06571 13.773C5.04643 12.3896 5.5627 11.0519 6.50768 10.0364C6.36395 9.68607 5.88406 8.27075 6.64445 6.34832C6.64445 6.34832 7.81982 5.97489 10.4951 7.77516C12.7898 7.15121 15.2108 7.15121 17.5055 7.77516C20.1785 5.97489 21.3515 6.34832 21.3515 6.34832C22.1142 8.26614 21.6344 9.68146 21.4906 10.0364C22.4386 11.052 22.9559 12.3921 22.9349 13.7776C22.9349 19.1231 19.6592 20.301 16.5434 20.6444C17.0442 21.0778 17.4916 21.9237 17.4916 23.2238C17.4916 25.0863 17.4754 26.5846 17.4754 27.0433C17.4754 27.4144 17.7281 27.8478 18.4375 27.7118C21.5903 26.6649 24.2657 24.537 25.9853 21.7085C27.7049 18.8801 28.3564 15.5357 27.8234 12.2734C27.2903 9.01108 25.6075 6.04373 23.0759 3.90202C20.5442 1.76031 17.3289 0.583944 14.0049 0.583313H14.0003Z" />
<path d="M5.30184 20.5707C5.27171 20.6398 5.16043 20.6606 5.07002 20.6122C4.97961 20.5638 4.91238 20.4739 4.94484 20.4024C4.97729 20.3309 5.08625 20.3125 5.17666 20.3609C5.26708 20.4093 5.33662 20.5015 5.30184 20.5707Z" />
<path d="M5.86984 21.1999C5.82183 21.224 5.7669 21.2307 5.71446 21.2189C5.66203 21.2071 5.61534 21.1776 5.58238 21.1354C5.49197 21.0386 5.47341 20.9049 5.54296 20.845C5.61251 20.785 5.7377 20.8127 5.82811 20.9095C5.91853 21.0063 5.93939 21.14 5.86984 21.1999Z" />
<path d="M6.42162 21.9998C6.33584 22.0597 6.18978 21.9998 6.10864 21.8799C6.08621 21.8584 6.06837 21.8327 6.05618 21.8041C6.04399 21.7756 6.0377 21.745 6.0377 21.714C6.0377 21.683 6.04399 21.6523 6.05618 21.6238C6.06837 21.5953 6.08621 21.5695 6.10864 21.548C6.19442 21.4904 6.34048 21.548 6.42162 21.6656C6.50276 21.7831 6.50507 21.9399 6.42162 21.9998Z" />
<path d="M7.1704 22.7743C7.09389 22.8596 6.93857 22.8365 6.81107 22.7213C6.68356 22.606 6.65342 22.4493 6.72992 22.3663C6.80642 22.2833 6.96175 22.3064 7.09389 22.4193C7.22603 22.5323 7.25154 22.6913 7.1704 22.7743Z" />
<path d="M8.22053 23.2261C8.18576 23.3344 8.02812 23.3828 7.87047 23.3367C7.71283 23.2906 7.60851 23.1615 7.63865 23.0509C7.66879 22.9403 7.82875 22.8895 7.98871 22.9403C8.14867 22.991 8.25067 23.1131 8.22053 23.2261Z" />
<path d="M9.3658 23.3045C9.3658 23.4174 9.23599 23.5142 9.06907 23.5165C8.90216 23.5188 8.76538 23.4266 8.76538 23.3137C8.76538 23.2007 8.8952 23.1039 9.06211 23.1016C9.22903 23.0993 9.3658 23.1892 9.3658 23.3045Z" />
<path d="M10.4322 23.127C10.4531 23.2399 10.3372 23.3575 10.1702 23.3851C10.0033 23.4128 9.85728 23.3459 9.83642 23.2353C9.81555 23.1247 9.93611 23.0048 10.0984 22.9748C10.2607 22.9449 10.4113 23.014 10.4322 23.127Z" />
</g>
<defs>
<clipPath id="clip0_1_91">
<rect width="28" height="28" />
</clipPath>
</defs>
</svg>
