<svg width="124" height="129" viewBox="0 0 124 129" fill="none" xmlns="http://www.w3.org/2000/svg">
<g clip-path="url(#clip0_172_119)">
<path d="M102.072 50.3938C101.441 50.3938 100.834 50.1281 100.409 49.6625C99.5718 48.7438 99.6343 47.3156 100.553 46.4781C101.431 45.6719 102.931 45.7375 103.734 46.6188C104.137 47.0594 104.347 47.6344 104.322 48.2375C104.294 48.8406 104.037 49.3938 103.591 49.8C103.175 50.1813 102.634 50.3906 102.072 50.3906V50.3938ZM102.072 47.4313C101.897 47.4313 101.728 47.4969 101.597 47.6156C101.306 47.8813 101.287 48.3281 101.55 48.6156C101.8 48.8938 102.269 48.9156 102.55 48.6594C102.691 48.5313 102.772 48.3563 102.778 48.1656C102.787 47.9781 102.722 47.7969 102.594 47.6594C102.456 47.5094 102.272 47.4281 102.069 47.4281L102.072 47.4313Z" fill="#15803D"/>
<path d="M51.0346 47.9969C50.7533 47.9969 50.5033 47.8938 50.2939 47.7C50.1002 47.4938 49.9971 47.2406 49.9971 46.9594C49.9971 46.6938 50.1158 46.4281 50.3096 46.2344C50.6783 45.85 51.3908 45.85 51.7596 46.2344C51.9533 46.4281 52.0564 46.6938 52.0564 46.9594C52.0564 47.2406 51.9533 47.4906 51.7596 47.6844C51.5658 47.8906 51.3002 47.9938 51.0346 47.9938V47.9969Z" fill="#15803D"/>
<path d="M49.9971 114.491C49.9971 113.913 50.4564 113.453 51.0346 113.453C51.6127 113.453 52.0564 113.913 52.0564 114.491C52.0564 115.069 51.5971 115.509 51.0346 115.509C50.4564 115.509 49.9971 115.053 49.9971 114.491Z" fill="#15803D"/>
<path d="M49.9971 109.991C49.9971 109.413 50.4564 108.953 51.0346 108.953C51.6127 108.953 52.0564 109.413 52.0564 109.991C52.0564 110.569 51.5971 111.009 51.0346 111.009C50.4721 111.009 49.9971 110.553 49.9971 109.991Z" fill="#15803D"/>
<path d="M49.9971 105.478C49.9971 104.916 50.4564 104.456 51.0346 104.456C51.6127 104.456 52.0564 104.916 52.0564 105.478C52.0564 106.041 51.5971 106.512 51.0346 106.512C50.4721 106.512 49.9971 106.056 49.9971 105.478Z" fill="#15803D"/>
<path d="M49.9971 100.978C49.9971 100.416 50.4564 99.9562 51.0346 99.9562C51.6127 99.9562 52.0564 100.416 52.0564 100.978C52.0564 101.541 51.5971 102.012 51.0346 102.012C50.4564 102.012 49.9971 101.556 49.9971 100.978Z" fill="#15803D"/>
<path d="M49.9971 96.4781C49.9971 95.9156 50.4564 95.4406 51.0346 95.4406C51.6127 95.4406 52.0564 95.9156 52.0564 96.4781C52.0564 97.0406 51.5971 97.5125 51.0346 97.5125C50.4721 97.5125 49.9971 97.0406 49.9971 96.4781Z" fill="#15803D"/>
<path d="M49.9971 91.9812C49.9971 91.4031 50.4564 90.9437 51.0346 90.9437C51.6127 90.9437 52.0564 91.4031 52.0564 91.9812C52.0564 92.5594 51.5971 93 51.0346 93C50.4564 93 49.9971 92.5437 49.9971 91.9812Z" fill="#15803D"/>
<path d="M49.9971 87.4812C49.9971 86.9031 50.4564 86.4437 51.0346 86.4437C51.6127 86.4437 52.0564 86.9031 52.0564 87.4812C52.0564 88.0594 51.5971 88.5 51.0346 88.5C50.4721 88.5 49.9971 88.0437 49.9971 87.4812Z" fill="#15803D"/>
<path d="M49.9971 82.9812C49.9971 82.4031 50.4564 81.9437 51.0346 81.9437C51.6127 81.9437 52.0564 82.4031 52.0564 82.9812C52.0564 83.5594 51.5971 84 51.0346 84C50.4721 84 49.9971 83.5437 49.9971 82.9812Z" fill="#15803D"/>
<path d="M49.9971 78.4688C49.9971 77.9063 50.4564 77.4469 51.0346 77.4469C51.6127 77.4469 52.0564 77.9063 52.0564 78.4688C52.0564 79.0313 51.5971 79.5031 51.0346 79.5031C50.4564 79.5031 49.9971 79.0469 49.9971 78.4688Z" fill="#15803D"/>
<path d="M49.9971 73.9688C49.9971 73.4063 50.4564 72.9469 51.0346 72.9469C51.6127 72.9469 52.0564 73.4063 52.0564 73.9688C52.0564 74.5313 51.5971 75.0031 51.0346 75.0031C50.4721 75.0031 49.9971 74.5469 49.9971 73.9688Z" fill="#15803D"/>
<path d="M49.9971 69.4688C49.9971 68.9063 50.4564 68.4469 51.0346 68.4469C51.6127 68.4469 52.0564 68.9063 52.0564 69.4688C52.0564 70.0313 51.5971 70.5031 51.0346 70.5031C50.4564 70.5031 49.9971 70.0313 49.9971 69.4688Z" fill="#15803D"/>
<path d="M49.9971 64.9719C49.9971 64.3938 50.4564 63.9344 51.0346 63.9344C51.6127 63.9344 52.0564 64.3938 52.0564 64.9719C52.0564 65.55 51.5971 65.9938 51.0346 65.9938C50.4564 65.9938 49.9971 65.5344 49.9971 64.9719Z" fill="#15803D"/>
<path d="M49.9971 60.4719C49.9971 59.8938 50.4564 59.4344 51.0346 59.4344C51.6127 59.4344 52.0564 59.8938 52.0564 60.4719C52.0564 61.05 51.5971 61.4938 51.0346 61.4938C50.4564 61.4938 49.9971 61.0344 49.9971 60.4719Z" fill="#15803D"/>
<path d="M49.9971 55.9719C49.9971 55.3938 50.4564 54.9344 51.0346 54.9344C51.6127 54.9344 52.0564 55.3938 52.0564 55.9719C52.0564 56.55 51.5971 56.9938 51.0346 56.9938C50.4721 56.9938 49.9971 56.5344 49.9971 55.9719Z" fill="#15803D"/>
<path d="M49.9971 51.475C49.9971 50.8969 50.4564 50.4375 51.0346 50.4375C51.6127 50.4375 52.0564 50.8969 52.0564 51.475C52.0564 52.0531 51.5971 52.4969 51.0346 52.4969C50.4564 52.4969 49.9971 52.0375 49.9971 51.475Z" fill="#15803D"/>
<path d="M51.0346 120.025C50.7533 120.025 50.5033 119.906 50.3096 119.713C50.1033 119.519 49.9971 119.269 49.9971 118.988C49.9971 118.706 50.1002 118.456 50.3096 118.263C50.6783 117.878 51.3752 117.878 51.7596 118.263C51.9533 118.456 52.0564 118.722 52.0564 118.988C52.0564 119.266 51.9533 119.519 51.7596 119.713C51.5533 119.906 51.3002 120.025 51.0346 120.025Z" fill="#15803D"/>
<path d="M61.4157 81.625C59.4501 81.625 57.5938 80.7781 56.322 79.2969C54.9563 77.7156 54.4095 75.625 54.822 73.5656C54.9126 73.1031 55.3095 72.7625 55.7782 72.7375C57.8657 72.6281 59.8782 73.4906 61.2313 75.0562C62.597 76.6406 63.1438 78.7281 62.7313 80.7875C62.6407 81.25 62.247 81.5875 61.7751 81.6156C61.6563 81.6219 61.5376 81.625 61.4188 81.625H61.4157Z" fill="#15803D"/>
<path d="M43.5874 92.0438C42.8905 90.875 41.7187 90.1688 40.4687 90.0156C40.0093 91.1875 40.0749 92.5563 40.7749 93.725C41.4718 94.8906 42.6405 95.5938 43.8937 95.75C44.353 94.5781 44.2874 93.2094 43.5905 92.0438H43.5874Z" fill="#15803D"/>
<path d="M44.5407 113.769C43.1907 113.616 41.9188 114.116 41.0376 115.019C41.6938 116.097 42.8188 116.875 44.1688 117.025C45.5188 117.181 46.7907 116.678 47.672 115.775C47.0188 114.697 45.8938 113.922 44.5438 113.769H44.5407Z" fill="#15803D"/>
<path d="M33.5717 90.2906C31.9373 89.0375 29.7498 88.5937 27.7654 89.1219C26.5654 89.4375 25.5342 90.0906 24.6936 90.95C24.6311 90.7812 24.5842 90.6062 24.5154 90.4375C23.3373 87.575 20.9404 85.4656 17.9467 84.6469C17.4935 84.5219 17.0154 84.7187 16.781 85.1281C15.2404 87.8219 15.0342 91.0094 16.2154 93.8656C17.3935 96.7219 19.7904 98.8344 22.7842 99.6562C22.8748 99.6812 22.9685 99.6937 23.0592 99.6937C23.4217 99.6937 23.7685 99.5 23.9529 99.1719C24.6779 97.9 25.0967 96.5156 25.2248 95.1125C26.0185 95.4281 26.856 95.6125 27.7092 95.6156C28.2842 95.6156 28.8592 95.5406 29.4185 95.3937C31.4404 94.8594 33.0748 93.4437 33.8935 91.5125C34.0842 91.0844 33.9498 90.5813 33.5779 90.2969L33.5717 90.2906ZM22.6092 91.2219C23.3623 93.0406 23.3654 95.0187 22.7186 96.8437L18.7185 87.1625C20.4623 87.9938 21.856 89.4 22.6092 91.2219ZM18.1154 93.0781C17.3623 91.2594 17.3592 89.2781 18.006 87.4562L22.006 97.1375C20.2623 96.3062 18.8685 94.9 18.1154 93.0781Z" fill="#15803D"/>
<path d="M29.8374 100.753C29.8374 102.003 27.9624 102.003 27.9624 100.753C27.9624 99.5031 29.8374 99.5031 29.8374 100.753Z" fill="#15803D"/>
<path d="M68.8249 81.675C68.8249 82.925 66.9468 82.925 66.9468 81.675C66.9468 80.425 68.8249 80.425 68.8249 81.675Z" fill="#15803D"/>
<path d="M91.2998 90.5969C91.2998 91.8469 89.4248 91.8469 89.4248 90.5969C89.4248 89.3469 91.2998 89.3469 91.2998 90.5969Z" fill="#15803D"/>
<path d="M79.2844 97.5531C79.2844 98.8031 77.4062 98.8031 77.4062 97.5531C77.4062 96.3031 79.2844 96.3031 79.2844 97.5531Z" fill="#15803D"/>
<path d="M82.1782 97.5531C82.1782 98.8031 80.3032 98.8031 80.3032 97.5531C80.3032 96.3031 82.1782 96.3031 82.1782 97.5531Z" fill="#15803D"/>
<path d="M42.5688 112.056C42.5688 113.306 40.6938 113.306 40.6938 112.056C40.6938 110.806 42.5688 110.806 42.5688 112.056Z" fill="#15803D"/>
<path d="M12.2471 91.5375C12.2471 92.7875 10.3721 92.7875 10.3721 91.5375C10.3721 90.2875 12.2471 90.2875 12.2471 91.5375Z" fill="#15803D"/>
<path d="M23.9907 82.6156C23.9907 83.8656 22.1157 83.8656 22.1157 82.6156C22.1157 81.3656 23.9907 81.3656 23.9907 82.6156Z" fill="#15803D"/>
<path d="M20.3625 81.675C20.3625 82.925 18.4844 82.925 18.4844 81.675C18.4844 80.425 20.3625 80.425 20.3625 81.675Z" fill="#15803D"/>
<path d="M44.8999 81.675C44.8999 82.925 43.0249 82.925 43.0249 81.675C43.0249 80.425 44.8999 80.425 44.8999 81.675Z" fill="#15803D"/>
<path d="M38.072 70.375C38.072 71.625 36.1938 71.625 36.1938 70.375C36.1938 69.125 38.072 69.125 38.072 70.375Z" fill="#15803D"/>
<path d="M31.7124 98.6625C31.7124 99.9125 29.8374 99.9125 29.8374 98.6625C29.8374 97.4125 31.7124 97.4125 31.7124 98.6625Z" fill="#15803D"/>
<path d="M112.803 51.2313V61.9844L111.56 63.1157V52.3719L112.803 51.2281V51.2313Z" fill="#15803D"/>
<path d="M110.528 53.3219V64.0594L109.284 65.1938V54.4688L110.528 53.325V53.3219Z" fill="#15803D"/>
<path d="M123.553 56.7531L109.306 41.175C108.859 40.6875 108.106 40.625 107.578 41.0187C107.571 41.025 106.774 41.6063 105.753 41.6063C104.899 41.6063 104.081 41.1875 103.328 40.3656C103.099 40.1156 102.778 39.9625 102.434 39.9469C102.059 39.925 101.759 40.0531 101.509 40.2844L98.84 42.7219C95.7119 39.9094 94.165 35.8406 94.165 30.2969V17.4219C94.165 9.74063 87.915 3.49062 80.2369 3.49062C79.4307 3.49062 78.6432 3.55938 77.8744 3.69063C74.9182 1.37813 71.1963 0 67.1619 0C57.8807 0 49.7401 8.8125 49.7401 18.8594V34.4781C46.7994 34.9906 44.64 37 43.7401 37.975L3.19005 84.4719C2.35255 85.4531 -0.334953 88.9813 0.193172 93.1656C0.521297 95.7594 1.99005 97.9938 4.56505 99.8031L42.0432 126.2C43.2963 127.041 46.6932 129 51.1682 129C54.4025 129 57.4932 127.978 60.3588 125.959L97.4932 99.8031C100.065 97.9906 101.537 95.7562 101.862 93.1594C102.39 88.9687 99.7025 85.4469 98.8494 84.45L58.5682 38.2687C56.6494 36.0594 54.5494 34.7844 52.315 34.45V18.8594C52.315 10.3375 59.3932 2.57187 67.1619 2.57187C69.9119 2.57187 72.4932 3.325 74.7057 4.63438C69.7682 6.78125 66.3057 11.7031 66.3057 17.4219C66.3057 22.4594 70.4057 26.5594 75.4463 26.5594C80.4869 26.5594 84.5869 22.4594 84.5869 17.4219C84.5869 13.0875 82.9963 9.11875 80.365 6.06563C86.5682 6.13438 91.5932 11.2031 91.5932 17.4219V30.2938C91.5932 36.425 93.4025 41.1719 96.9369 44.4625L94.29 46.8844C94.0369 47.1125 93.8869 47.4375 93.8713 47.7781C93.8557 48.1188 93.9775 48.4531 94.2088 48.7031C96.1838 50.8625 94.7869 52.6562 94.4932 52.9844C94.04 53.475 94.0369 54.2344 94.4869 54.7281L108.737 70.3063C108.965 70.5594 109.287 70.7094 109.631 70.725C109.653 70.725 109.668 70.725 109.687 70.725C110.009 70.725 110.318 70.6062 110.556 70.3844L123.474 58.5656C123.996 58.0875 124.034 57.275 123.553 56.75V56.7531ZM55.4588 40.9781L95.7275 87.15C95.9713 87.4344 98.1025 90.0187 97.7713 92.6531C97.5932 94.0687 96.7244 95.3094 95.115 96.4437L57.9807 122.6C55.8244 124.119 53.5307 124.888 51.1619 124.888C47.7244 124.888 45.0682 123.281 44.3682 122.812L6.9338 96.4406C5.32442 95.3062 4.45567 94.0687 4.27755 92.6531C3.9463 90.025 6.07755 87.4344 6.3088 87.1625L46.5244 41.0563L46.8025 40.7344C47.2932 40.2063 49.0494 38.4781 51.1213 38.4781C52.5557 38.4781 54.0119 39.3219 55.4557 40.9813L55.4588 40.9781ZM82.0088 17.4219C82.0088 21.0406 79.0619 23.9875 75.4432 23.9875C71.8244 23.9875 68.8775 21.0406 68.8775 17.4219C68.8775 12.2156 72.3994 7.81562 77.1869 6.47812C80.1494 9.19687 82.0088 13.0938 82.0088 17.4219ZM109.768 67.6188L108.253 65.9625V55.4187L107.009 56.5625V64.6031L105.978 63.475V57.5125L104.734 58.6562V62.1156L103.703 60.9906V59.6063L103.015 60.2375L97.0838 53.7531C97.8588 52.3656 98.3275 50.2125 96.8994 47.9844L102.374 42.9719C103.637 43.9437 104.868 44.1719 105.749 44.1719C106.693 44.1719 107.499 43.9219 108.093 43.6594L114.003 50.1188L113.834 50.275V61.0344L115.078 59.8969V51.2906L116.109 52.4188V58.9594L117.353 57.8219V53.775L118.381 54.9V56.8813L119.368 55.9813L120.787 57.5312L109.768 67.6125V67.6188Z" fill="#15803D"/>
<path d="M73.0783 94.5781C71.9376 93.2906 70.4845 92.3688 68.8876 91.8157C68.8033 90.0844 68.2752 88.3875 67.2939 86.8813C67.0377 86.4844 66.547 86.3125 66.1001 86.4688C63.1595 87.4594 60.8876 89.7031 59.8751 92.625C58.8626 95.5438 59.2501 98.7125 60.9408 101.316C61.1345 101.616 61.4626 101.784 61.8033 101.784C61.9126 101.784 62.0251 101.766 62.1314 101.728C63.4689 101.275 64.6595 100.556 65.6627 99.6438C65.8752 99.95 66.097 100.244 66.347 100.528C68.2314 102.659 70.9533 103.881 73.8095 103.881C74.022 103.881 74.2345 103.875 74.4439 103.859C74.9127 103.831 75.3033 103.484 75.3908 103.022C75.9658 99.9657 75.122 96.8875 73.0752 94.575L73.0783 94.5781ZM62.0345 98.9157C61.2876 97.1344 61.1751 95.1563 61.822 93.2969C62.4689 91.4344 63.7814 89.9532 65.4751 89.0219L62.0376 98.9157H62.0345ZM66.4158 94.8969C65.7689 96.7594 64.4564 98.2407 62.7658 99.1719L66.2064 89.275C66.9564 91.0563 67.0658 93.0344 66.4158 94.8938V94.8969ZM73.3314 101.388C73.2876 101.431 73.2314 101.453 73.1751 101.453C73.1189 101.453 73.0626 101.431 73.0189 101.388L68.147 96.5157C68.0595 96.4282 68.0595 96.2875 68.147 96.2C68.2345 96.1125 68.3751 96.1125 68.4626 96.2L73.3345 101.072C73.422 101.159 73.422 101.3 73.3345 101.388H73.3314Z" fill="#15803D"/>
<path d="M38.0406 76.1719C37.9469 75.7188 37.5531 75.3844 37.0906 75.3656C34.2031 75.2531 31.4281 76.3938 29.475 78.4875C29.2406 77.4375 28.6375 76.5375 27.7938 75.9438C26.8375 76.7656 26.2531 78.0031 26.3219 79.3594C26.3719 80.3594 26.7687 81.2531 27.3875 81.9469C26.8156 83.6 26.6812 85.3969 27.0531 87.1781C27.1469 87.6313 27.5406 87.9656 28.0031 87.9844C28.15 87.9906 28.2938 87.9938 28.4406 87.9938C31.3313 87.9938 34.0594 86.7313 35.925 84.5375C37.9 82.2156 38.6688 79.1656 38.0406 76.1688V76.1719ZM28.9156 85.9531C28.8719 85.5219 28.8844 85.0969 28.9094 84.6719L31.7656 85.2063C30.8781 85.625 29.9156 85.8906 28.9125 85.95L28.9156 85.9531ZM32.7375 84.6375L29 83.9344C29.05 83.625 29.1 83.3156 29.1844 83.0156L33.7125 83.8656C33.4031 84.15 33.0813 84.4094 32.7375 84.6375ZM34.375 83.2313L34.3688 83.2375L29.45 82.3125C29.5687 82.0156 29.6688 81.7125 29.825 81.4281L34.9531 82.3906C34.7687 82.6781 34.5969 82.9656 34.375 83.2313ZM35.2938 81.8781L35.325 81.7094L30.2812 80.7625C30.4281 80.55 30.55 80.3281 30.7188 80.1281C30.7813 80.0531 30.8594 80 30.925 79.9281L35.7344 80.8313C35.6094 81.1875 35.475 81.5438 35.2938 81.8781ZM35.9563 80.1188L31.5844 79.2969C31.9156 79.0125 32.2688 78.7656 32.6406 78.5406L36.1406 79.1969C36.1 79.5094 36.0313 79.8156 35.9563 80.1188ZM36.1844 78.4563L33.7344 77.9969C34.5094 77.6813 35.3281 77.4594 36.1781 77.4063C36.2125 77.7594 36.1906 78.1031 36.1812 78.4563H36.1844Z" fill="#15803D"/>
<path d="M48.45 107.281C47.9031 104.709 46.2343 102.578 43.8781 101.437C43.2562 101.137 42.5968 100.953 41.9281 100.819C41.8218 98.6531 41.0125 96.5656 39.5562 94.8594C39.25 94.5031 38.7406 94.3969 38.3187 94.6031C35.5312 95.9719 33.5718 98.4937 32.9437 101.516C32.8781 101.837 32.8343 102.162 32.8 102.484C32.45 102.497 32.0968 102.528 31.75 102.597C29.7 103 27.9812 104.309 27.0375 106.184C26.825 106.603 26.925 107.112 27.2812 107.422C28.5093 108.494 30.0812 109.084 31.7 109.084C32.1343 109.084 32.575 109.041 33.0031 108.956C33.4031 108.878 33.7812 108.753 34.1531 108.606C34.4406 109.087 34.7562 109.559 35.1281 109.994C35.3281 110.228 35.6187 110.356 35.9125 110.356C36.0656 110.356 36.2187 110.322 36.3656 110.25C37.5718 109.659 38.6093 108.841 39.4656 107.872C39.7875 108.087 40.1218 108.291 40.4781 108.462C41.6312 109.019 42.8593 109.3 44.1312 109.3C45.4031 109.3 46.7281 108.994 47.8937 108.416C48.3187 108.203 48.5437 107.734 48.4468 107.278L48.45 107.281ZM39.5062 103.616L35.3375 100.753C35.4843 100.362 35.6656 100 35.8718 99.6437L39.7875 102.334C39.7625 102.531 39.7656 102.731 39.725 102.925C39.675 103.169 39.5781 103.387 39.5062 103.619V103.616ZM35.0156 105.306C34.8906 104.772 34.8187 104.225 34.8093 103.669L38.2843 106.053C38.0281 106.394 37.7656 106.722 37.4593 107.012L35.0187 105.306H35.0156ZM34.8718 102.812C34.9 102.522 34.9031 102.228 34.9625 101.937C34.9937 101.784 35.0625 101.644 35.1031 101.494L39.2718 104.356C39.1125 104.737 38.9093 105.087 38.6937 105.437L34.8718 102.816V102.812ZM36.2375 98.9969C36.4718 98.6656 36.7468 98.3656 37.0312 98.075L39.7562 99.9781C39.8406 100.475 39.8843 100.981 39.875 101.491L36.2406 98.9969H36.2375ZM38.4968 96.8594C38.9281 97.4844 39.2218 98.1687 39.4562 98.8719L37.5875 97.5656C37.8781 97.3187 38.1687 97.0687 38.4968 96.8625V96.8594ZM36.1875 108C35.8531 107.516 35.5906 106.997 35.375 106.462L36.8468 107.491C36.6281 107.662 36.425 107.853 36.1875 108.003V108ZM44.1343 107.247C43.175 107.247 42.2468 107.031 41.375 106.612C41.125 106.491 40.8937 106.341 40.6656 106.187C40.8968 105.775 41.1 105.341 41.2718 104.891L45.6406 107.044C45.1468 107.166 44.6406 107.247 44.1343 107.247ZM41.525 104.15C41.6031 103.884 41.6843 103.619 41.7406 103.341C41.7718 103.194 41.7812 103.044 41.8062 102.894C42.2093 102.987 42.6031 103.109 42.9781 103.294C44.3093 103.937 45.325 105.016 45.9375 106.325L41.5218 104.15H41.525Z" fill="#15803D"/>
<path d="M84.2405 92.8344C83.6467 92.3437 82.953 92.0656 82.2436 91.9469C82.4811 91.7125 82.7061 91.4625 82.9092 91.1875C84.153 89.5062 84.5405 87.3812 83.9717 85.3594C83.8436 84.9031 83.4186 84.5281 82.9561 84.6062C81.2874 84.6437 79.7624 85.3156 78.5717 86.4187C77.3874 85.9562 76.0842 85.825 74.8217 86.0781C72.7686 86.4812 71.0499 87.7875 70.103 89.6656C69.8905 90.0844 69.9936 90.5969 70.3499 90.9062C71.5842 91.9781 73.153 92.5687 74.7686 92.5687C75.203 92.5687 75.6405 92.525 76.0717 92.4406C76.2061 92.4125 76.3311 92.375 76.4624 92.3406C76.503 92.6156 76.5561 92.8875 76.6311 93.1594C76.7561 93.6062 77.1624 93.9125 77.6217 93.9125C77.6311 93.9125 77.6374 93.9125 77.6467 93.9125C78.7561 93.8844 79.8124 93.5906 80.7499 93.075C80.953 93.9406 81.4155 94.7531 82.1561 95.3625C83.203 96.2281 84.5436 96.5 85.7749 96.2219C85.8124 94.9594 85.2905 93.6969 84.2436 92.8344H84.2405ZM75.6717 90.4219C75.4467 90.4656 75.2186 90.4781 74.9936 90.4875L76.4811 88.0469C76.6999 88.0656 76.9155 88.0906 77.128 88.1375L75.7499 90.3969C75.7249 90.4031 75.6999 90.4156 75.6717 90.4187V90.4219ZM75.6061 88.0625L74.1405 90.4687C73.928 90.4375 73.7217 90.3937 73.5155 90.3375L74.803 88.225C74.9436 88.1844 75.0749 88.1312 75.2186 88.1031C75.3436 88.075 75.4749 88.075 75.603 88.0625H75.6061ZM73.6217 88.7375L72.8124 90.0656C72.6717 90.0031 72.5342 89.9375 72.403 89.8594C72.7436 89.4094 73.1561 89.0344 73.6249 88.7375H73.6217ZM76.8686 89.9937L77.8624 88.3625C78.078 88.45 78.2936 88.5406 78.4936 88.6625C78.0624 89.2344 77.4999 89.675 76.8717 89.9937H76.8686ZM81.2561 89.9656C80.5655 90.9 79.5749 91.5281 78.4561 91.7562C78.4467 91.6594 78.4561 91.5594 78.4561 91.4625C79.4311 90.8219 80.2405 89.9375 80.7842 88.8562C80.9967 88.4375 80.8967 87.9281 80.5405 87.6187C80.5061 87.5875 80.4686 87.5656 80.4342 87.5344C80.9467 87.1656 81.5217 86.8969 82.1436 86.7687C82.253 87.9031 81.9436 89.0344 81.253 89.9656H81.2561Z" fill="#15803D"/>
<path d="M65.4343 105.681C64.6093 105.512 63.803 105.625 63.0749 105.906C62.2999 104.216 60.8593 102.959 59.053 102.462C58.5937 102.337 58.1218 102.537 57.8874 102.944C56.9155 104.641 56.7812 106.65 57.5249 108.45C58.2655 110.25 59.7749 111.584 61.6624 112.109C61.753 112.134 61.8468 112.147 61.9374 112.147C62.2999 112.147 62.6468 111.953 62.8312 111.628C63.3968 110.641 63.6437 109.55 63.6343 108.453C63.9905 108.647 64.3655 108.806 64.7843 108.891C66.1155 109.159 67.4249 108.772 68.3843 107.947C67.8218 106.819 66.7687 105.95 65.4374 105.678L65.4343 105.681ZM60.0374 108.684L61.1374 106.625C61.1843 106.719 61.2437 106.806 61.2843 106.906C61.3187 106.997 61.3374 107.084 61.3687 107.175L60.3655 109.053C60.2468 108.937 60.1437 108.812 60.0374 108.684ZM59.4249 107.675C59.3905 107.594 59.3749 107.509 59.3468 107.425L60.3562 105.537C60.4749 105.656 60.578 105.778 60.6812 105.909L59.578 107.972C59.5249 107.872 59.4655 107.778 59.4218 107.675H59.4249ZM59.3155 104.769C59.478 104.853 59.628 104.956 59.7749 105.056L59.1155 106.287C59.0905 105.775 59.153 105.259 59.3155 104.769ZM61.3937 109.816C61.2343 109.734 61.0937 109.634 60.9468 109.537L61.5937 108.325C61.6155 108.828 61.553 109.331 61.3937 109.819V109.816Z" fill="#15803D"/>
</g>
<defs>
<clipPath id="clip0_172_119">
<rect width="123.769" height="129" fill="white" transform="translate(0.125)"/>
</clipPath>
</defs>
</svg>
