<svg width="86" height="86" viewBox="0 0 86 86" fill="none" xmlns="http://www.w3.org/2000/svg">
<path d="M4.0127 42.8229C4.0127 64.1253 21.2806 81.3932 42.583 81.3932C63.8854 81.3932 81.1533 64.1253 81.1533 42.8229C81.1533 21.5205 63.8854 4.25259 42.583 4.25259" stroke="#713F12" stroke-width="8" stroke-linecap="round" stroke-linejoin="round"/>
<path d="M40.6549 56.3225C40.6549 56.3225 46.4404 48.6085 58.0115 48.6085C69.5826 48.6085 75.3681 56.3225 75.3681 56.3225M7.87012 11.9667C7.87012 1.34444 23.2982 1.34444 23.2982 11.9667C23.2982 19.5535 15.5842 18.2922 15.5842 27.3948M15.5842 39.0045L15.6227 38.962" stroke="#713F12" stroke-width="8" stroke-linecap="round" stroke-linejoin="round"/>
<path d="M63.7969 31.2518C63.2854 31.2518 62.7949 31.0487 62.4332 30.687C62.0715 30.3253 61.8683 29.8348 61.8683 29.3233C61.8683 28.8118 62.0715 28.3213 62.4332 27.9597C62.7949 27.598 63.2854 27.3948 63.7969 27.3948C64.3083 27.3948 64.7989 27.598 65.1605 27.9597C65.5222 28.3213 65.7254 28.8118 65.7254 29.3233C65.7254 29.8348 65.5222 30.3253 65.1605 30.687C64.7989 31.0487 64.3083 31.2518 63.7969 31.2518ZM36.7977 31.2518C36.2862 31.2518 35.7957 31.0487 35.434 30.687C35.0723 30.3253 34.8691 29.8348 34.8691 29.3233C34.8691 28.8118 35.0723 28.3213 35.434 27.9597C35.7957 27.598 36.2862 27.3948 36.7977 27.3948C37.3091 27.3948 37.7997 27.598 38.1613 27.9597C38.523 28.3213 38.7262 28.8118 38.7262 29.3233C38.7262 29.8348 38.523 30.3253 38.1613 30.687C37.7997 31.0487 37.3091 31.2518 36.7977 31.2518Z" stroke="#713F12" stroke-width="8" stroke-linecap="round" stroke-linejoin="round"/>
</svg>
