<svg width="215" height="215" viewBox="0 0 215 215" fill="none" xmlns="http://www.w3.org/2000/svg">
<path d="M157.632 109.21H156.495C158.503 106.971 159.737 104.026 159.737 100.788C159.737 93.8222 154.071 88.1563 147.105 88.1563C140.139 88.1563 134.473 93.8222 134.473 100.788C134.473 101.506 134.546 102.208 134.662 102.893H118.599C120.607 100.655 121.841 97.7097 121.841 94.4722C121.841 87.506 116.175 81.8401 109.209 81.8401C102.242 81.8401 96.5765 87.506 96.5765 94.4722C96.5765 97.7097 97.8102 100.656 99.8186 102.893H97.957C95.1463 102.893 92.5022 103.99 90.5151 105.978L84.588 111.902C82.7309 110.248 80.3091 109.209 77.6295 109.209H76.7448C78.602 107.07 79.7346 104.289 79.7346 101.241C79.7346 94.5457 74.7276 88.8251 68.3362 88.2151C64.7885 87.8672 61.2332 89.0509 58.6048 91.4381C55.9785 93.8299 54.4704 97.2364 54.4704 100.787V109.422C49.6726 110.401 46.0492 114.653 46.0492 119.736V140.789C46.0492 141.954 46.9928 142.894 48.1542 142.894H54.089L52.4341 152.825L46.2191 167.331C45.779 168.355 46.2146 169.544 47.2127 170.043L55.6339 174.254C55.9295 174.401 56.2518 174.475 56.5763 174.475C56.8164 174.475 57.0565 174.433 57.2876 174.351C57.8289 174.155 58.2668 173.748 58.5002 173.225L64.9975 158.604V172.369C64.9975 173.534 65.941 174.474 67.1024 174.474H77.6296C78.7922 174.474 79.7346 173.533 79.7346 172.369V142.896H86.0507C87.2132 142.896 88.1557 141.954 88.1557 140.791V126.925L96.5768 118.504L96.578 172.369C96.578 173.534 97.5215 174.474 98.6829 174.474H119.736C120.899 174.474 121.841 173.533 121.841 172.369L121.842 115.525H126.946C126.377 116.818 126.052 118.237 126.052 119.735V140.788C126.052 141.953 126.996 142.893 128.157 142.893H134.473V172.369C134.473 173.534 135.417 174.474 136.578 174.474H147.106C148.268 174.474 149.211 173.533 149.211 172.369V158.605L155.708 173.224C155.941 173.749 156.379 174.154 156.92 174.35C157.153 174.433 157.393 174.476 157.633 174.476C157.957 174.476 158.28 174.402 158.574 174.254L166.995 170.043C167.993 169.544 168.429 168.355 167.989 167.331L161.774 152.825L160.119 142.895H166.054C167.216 142.895 168.159 141.954 168.159 140.79L168.16 119.736C168.16 113.932 163.438 109.21 157.633 109.21L157.632 109.21ZM147.106 92.3664C151.75 92.3664 155.527 96.1428 155.527 100.788C155.527 105.432 151.75 109.209 147.106 109.209C142.461 109.209 138.684 105.432 138.684 100.788C138.683 96.1442 142.461 92.3664 147.106 92.3664ZM100.786 94.4713C100.786 89.8269 104.562 86.0501 109.207 86.0501C113.852 86.0501 117.628 89.8266 117.628 94.4713C117.628 99.1158 113.852 102.893 109.207 102.893C104.564 102.894 100.786 99.1161 100.786 94.4713ZM58.68 100.787C58.68 98.419 59.6858 96.1494 61.4385 94.5536C63.2156 92.9365 65.535 92.1707 67.9358 92.4041C72.1902 92.8131 75.5233 96.693 75.5233 101.241C75.5233 105.634 71.9481 109.21 67.5534 109.21H58.6798L58.68 100.787ZM83.9444 138.685H79.7333V119.737H75.5221V170.265H69.2061L69.2072 138.683C69.2072 137.579 68.3525 136.661 67.2511 136.584C66.1686 136.504 65.175 137.29 65.0172 138.384L62.9544 152.831L55.5458 169.499L50.87 167.162L56.4025 154.247C56.4703 154.094 56.5159 153.931 56.5437 153.765L58.6486 141.132C58.6709 141.02 58.6798 140.905 58.6798 140.789V119.735H54.4686V138.683H50.2586V119.735C50.2586 116.253 53.0926 113.419 56.5746 113.419H77.6279C81.1098 113.419 83.9439 116.253 83.9439 119.735L83.9444 138.685ZM119.734 111.316C118.572 111.316 117.629 112.257 117.629 113.421V170.265H111.313V132.367H107.102V170.265H100.786V113.421C100.786 112.571 100.272 111.799 99.4866 111.476C98.6953 111.146 97.794 111.328 97.1916 111.933L88.1536 120.971V119.737C88.1536 118.148 87.7746 116.658 87.1411 115.305L93.4927 108.956C94.6674 107.78 96.2956 107.105 97.9582 107.105H136.18C136.618 107.861 137.134 108.564 137.715 109.21L136.577 109.211C134.228 109.211 132.08 110.011 130.327 111.316L119.734 111.316ZM163.946 138.685H159.734V119.737H155.523V140.79C155.523 140.906 155.532 141.021 155.553 141.136L157.658 153.768C157.686 153.935 157.734 154.097 157.799 154.25L163.332 167.165L158.656 169.502L151.247 152.834L149.185 138.387C149.029 137.293 148.035 136.505 146.951 136.587C145.852 136.665 144.997 137.583 144.997 138.685V170.267H138.681V119.739H134.47V138.688H130.258V119.739C130.258 116.257 133.093 113.423 136.575 113.423H157.628C161.11 113.423 163.944 116.257 163.944 119.739L163.946 138.685Z" fill="#713F12"/>
<path d="M56.0162 77.6308L70.27 85.7741C70.5934 85.9597 70.9535 86.0519 71.3136 86.0519C71.6781 86.0519 72.0438 85.9575 72.3705 85.7674C73.0185 85.3906 73.4186 84.696 73.4186 83.9469V77.6309H79.7346C83.2166 77.6309 86.0507 74.7968 86.0507 71.3149V46.0504C86.0507 42.5685 83.2166 39.7344 79.7346 39.7344H46.0504C42.5685 39.7344 39.7344 42.5684 39.7344 46.0504V71.3149C39.7344 74.7968 42.5684 77.6309 46.0504 77.6309L56.0162 77.6308ZM43.944 71.3148V46.0504C43.944 44.8879 44.8898 43.9454 46.049 43.9454H79.7332C80.8935 43.9454 81.8382 44.889 81.8382 46.0504V71.3148C81.8382 72.4773 80.8924 73.4198 79.7332 73.4198H71.312C70.1495 73.4198 69.207 74.3612 69.207 75.5248V80.3161L57.6194 73.6945C57.3004 73.5166 56.9404 73.42 56.5747 73.42H46.0475C44.8872 73.42 43.9425 72.4775 43.9425 71.315L43.944 71.3148Z" fill="#713F12"/>
<path d="M168.159 39.7329H96.5768C93.0948 39.7329 90.2607 42.567 90.2607 46.0489V71.3134C90.2607 74.7953 93.0948 77.6294 96.5768 77.6294H119.736V81.8406C119.736 82.5986 120.144 83.2976 120.803 83.6722C121.462 84.0467 122.275 84.0345 122.924 83.6444L132.951 77.6294H142.023L147.722 83.3286C148.13 83.7365 148.669 83.9454 149.21 83.9454C149.653 83.9454 150.097 83.8087 150.474 83.5242L158.334 77.6292H168.159C171.641 77.6292 174.475 74.7952 174.475 71.3132V46.0488C174.475 42.5668 171.641 39.7327 168.159 39.7327L168.159 39.7329ZM170.264 71.3145C170.264 72.477 169.318 73.4195 168.159 73.4195H157.632C157.177 73.4195 156.733 73.5673 156.368 73.8407L149.407 79.06L144.382 74.0342C143.989 73.6408 143.452 73.4196 142.894 73.4196H132.367C131.986 73.4196 131.612 73.523 131.283 73.7208L123.946 78.1209V75.5258C123.946 74.361 123.003 73.4208 121.841 73.4208L96.5768 73.4197C95.4165 73.4197 94.4718 72.4761 94.4718 71.3147L94.4707 46.0502C94.4707 44.8877 95.4165 43.9452 96.5757 43.9452H168.158C169.318 43.9452 170.263 44.8888 170.263 46.0502L170.264 71.3145Z" fill="#713F12"/>
<path d="M157.632 48.1547H166.053V52.3658H157.632V48.1547Z" fill="#713F12"/>
<path d="M98.6826 48.1547H153.421V52.3658H98.6826V48.1547Z" fill="#713F12"/>
<path d="M126.053 56.5764H166.054V60.7876H126.053V56.5764Z" fill="#713F12"/>
<path d="M98.6826 56.5764H121.842V60.7876H98.6826V56.5764Z" fill="#713F12"/>
<path d="M149.213 64.9982H166.056V69.2093H149.213V64.9982Z" fill="#713F12"/>
<path d="M113.42 64.9982H145.002V69.2093H113.42V64.9982Z" fill="#713F12"/>
<path d="M98.6826 64.9982H109.21V69.2093H98.6826V64.9982Z" fill="#713F12"/>
<path d="M52.3657 50.2601H56.5769V54.4713H52.3657V50.2601Z" fill="#713F12"/>
<path d="M69.209 50.2601H73.4202V54.4713H69.209V50.2601Z" fill="#713F12"/>
<path d="M54.4712 60.7873C54.4712 65.4318 58.2476 69.2085 62.8924 69.2085C67.5372 69.2085 71.3136 65.4321 71.3136 60.7873C71.3136 59.6225 70.37 58.6823 69.2086 58.6823H56.5774C55.4149 58.6823 54.4713 59.6237 54.4713 60.7873H54.4712ZM66.5376 62.8934C65.8097 64.1526 64.4471 64.9984 62.8932 64.9984C61.3394 64.9984 59.9769 64.1515 59.2488 62.8934H66.5376Z" fill="#713F12"/>
</svg>
